<?xml version="1.0" encoding="UTF-8"?>
<svg version="1.1" xmlns="http://www.w3.org/2000/svg" width="1320" height="1000">
<path d="M0 0 C435.6 0 871.2 0 1320 0 C1320 330 1320 660 1320 1000 C884.4 1000 448.8 1000 0 1000 C0 670 0 340 0 0 Z " fill="#07689F" transform="translate(0,0)"/>
<path d="M0 0 C2.518046 0.00537366 5.03591432 0.00000795 7.55395508 -0.00634766 C21.61391914 -0.01391343 35.42149787 0.64964885 49.3293457 2.88037109 C50.42786865 3.05375 51.5263916 3.22712891 52.65820312 3.40576172 C84.37505191 8.52422673 84.37505191 8.52422673 97.6652832 13.05444336 C100.63393303 14.02555676 103.61737106 14.88759271 106.62614441 15.72413635 C116.60272904 18.52929561 126.10232251 22.16466037 135.6418457 26.19287109 C136.42293701 26.52018219 137.20402832 26.84749329 138.00878906 27.1847229 C150.24825796 32.32933311 162.06765666 37.92638718 173.51147461 44.6875 C176.01410906 46.16567006 178.53525116 47.6079979 181.05981445 49.04833984 C202.82341454 61.61675642 222.84394998 77.21440696 241.0871582 94.47412109 C243.07114952 96.3121512 245.03850309 98.04811636 247.1262207 99.75537109 C249.37186786 101.64121843 251.21770951 103.39233851 253.0793457 105.63037109 C255.69556944 108.70760342 258.39470875 111.68085923 261.16625977 114.61914062 C267.90391015 121.78671727 274.02464802 129.28712101 279.9543457 137.13037109 C280.77854004 138.2097998 280.77854004 138.2097998 281.61938477 139.31103516 C290.1485603 150.50706625 297.91345698 161.94360161 304.9543457 174.13037109 C305.38199219 174.86610352 305.80963867 175.60183594 306.25024414 176.35986328 C339.18311458 233.32550216 352.99278143 296.71772041 351.9543457 362.13037109 C351.94564453 363.16693848 351.93694336 364.20350586 351.92797852 365.27148438 C351.76229941 382.20217474 349.03596688 398.51052522 345.9543457 415.13037109 C345.62942017 416.96748581 345.30512552 418.80471231 344.98168945 420.64208984 C341.59089544 439.29054001 336.11903991 457.5892232 328.9543457 475.13037109 C328.57294434 476.07605957 328.19154297 477.02174805 327.79858398 477.99609375 C311.55082053 518.09708885 289.38337431 554.3000155 259.9543457 586.13037109 C259.03685623 587.13873763 258.12023582 588.14789539 257.2043457 589.15771484 C249.81856947 597.28797934 242.29542062 604.97702205 233.9543457 612.13037109 C232.89928177 613.04920986 231.84462596 613.96851738 230.7902832 614.88818359 C218.45115826 625.6130877 205.70467152 635.28253196 191.9543457 644.13037109 C190.94243164 644.78521484 189.93051758 645.44005859 188.88793945 646.11474609 C170.75311567 657.55836371 151.72981063 666.89059404 131.9543457 675.13037109 C131.12418945 675.47970703 130.2940332 675.82904297 129.4387207 676.18896484 C118.35135447 680.82110275 107.07955222 684.32535319 95.48022461 687.43945312 C93.16221302 688.07351197 90.86114766 688.74725582 88.55981445 689.43896484 C74.0369499 693.68516758 59.08997436 695.5590843 44.13623047 697.63720703 C41.10746014 698.05648681 41.10746014 698.05648681 38.79125977 698.67407227 C7.08619516 706.54977212 -33.39200213 699.84016784 -65.0456543 694.13037109 C-65.8907959 693.97842285 -66.7359375 693.82647461 -67.60668945 693.66992188 C-119.88503668 684.0282051 -170.66446053 660.36415773 -212.0456543 627.13037109 C-213.41657227 626.05916016 -213.41657227 626.05916016 -214.81518555 624.96630859 C-225.0509821 616.92980274 -235.0223477 608.51703232 -244.0456543 599.13037109 C-246.47995495 596.6803399 -248.92617882 594.24628604 -251.4050293 591.84130859 C-257.44259371 585.9418584 -262.79991869 579.7345301 -268.0456543 573.13037109 C-268.96837405 572.00782881 -269.89293848 570.88680095 -270.8190918 569.76708984 C-278.86555145 559.97691883 -286.07526106 549.70873907 -293.0456543 539.13037109 C-293.74045898 538.07978516 -294.43526367 537.02919922 -295.15112305 535.94677734 C-297.20333279 532.72187631 -299.14535293 529.44592366 -301.0456543 526.13037109 C-301.54145996 525.27217773 -302.03726563 524.41398438 -302.5480957 523.52978516 C-311.85646061 507.27070365 -319.20209017 490.7923588 -325.82958984 473.3059082 C-326.90349265 470.50160107 -328.02386752 467.72343827 -329.16674805 464.94677734 C-336.07882651 447.73317828 -339.8400902 429.33508379 -343.0456543 411.13037109 C-343.23788574 410.05464844 -343.43011719 408.97892578 -343.62817383 407.87060547 C-346.31132569 392.60181565 -347.84029495 377.62674055 -348.0456543 362.13037109 C-348.06611816 360.92687012 -348.08658203 359.72336914 -348.10766602 358.48339844 C-348.4978162 332.91082704 -346.5876757 308.31017555 -342.0456543 283.13037109 C-341.89370605 282.28522949 -341.74175781 281.44008789 -341.58520508 280.56933594 C-331.9434883 228.29098871 -308.27944093 177.51156486 -275.0456543 136.13037109 C-274.33151367 135.21642578 -273.61737305 134.30248047 -272.8815918 133.36083984 C-264.84508594 123.12504329 -256.43231552 113.15367769 -247.0456543 104.13037109 C-244.59562311 101.69607044 -242.16156925 99.24984657 -239.7565918 96.77099609 C-233.8571416 90.73343168 -227.6498133 85.37610671 -221.0456543 80.13037109 C-219.92311201 79.20765134 -218.80208415 78.28308691 -217.68237305 77.35693359 C-183.97697332 49.65474755 -142.76351344 25.92388882 -100.29663086 15 C-97.17095747 14.16388941 -94.10955526 13.2113973 -91.0300293 12.22021484 C-84.12894812 10.08520356 -77.18456678 8.50119612 -70.1081543 7.06787109 C-68.22060425 6.68272339 -68.22060425 6.68272339 -66.29492188 6.28979492 C-58.63442511 4.76041533 -50.97159054 3.38756949 -43.2331543 2.31787109 C-42.02961304 2.15049438 -42.02961304 2.15049438 -40.80175781 1.97973633 C-27.24362061 0.24929168 -13.64768196 -0.03453428 0 0 Z " fill="#07689F" transform="translate(658.045654296875,149.86962890625)"/>
<path d="M0 0 C2.518046 0.00537366 5.03591432 0.00000795 7.55395508 -0.00634766 C21.61391914 -0.01391343 35.42149787 0.64964885 49.3293457 2.88037109 C50.42786865 3.05375 51.5263916 3.22712891 52.65820312 3.40576172 C84.37505191 8.52422673 84.37505191 8.52422673 97.6652832 13.05444336 C100.63393303 14.02555676 103.61737106 14.88759271 106.62614441 15.72413635 C116.60272904 18.52929561 126.10232251 22.16466037 135.6418457 26.19287109 C136.42293701 26.52018219 137.20402832 26.84749329 138.00878906 27.1847229 C150.24825796 32.32933311 162.06765666 37.92638718 173.51147461 44.6875 C176.01410906 46.16567006 178.53525116 47.6079979 181.05981445 49.04833984 C202.82341454 61.61675642 222.84394998 77.21440696 241.0871582 94.47412109 C243.07114952 96.3121512 245.03850309 98.04811636 247.1262207 99.75537109 C249.37186786 101.64121843 251.21770951 103.39233851 253.0793457 105.63037109 C255.69556944 108.70760342 258.39470875 111.68085923 261.16625977 114.61914062 C267.90391015 121.78671727 274.02464802 129.28712101 279.9543457 137.13037109 C280.77854004 138.2097998 280.77854004 138.2097998 281.61938477 139.31103516 C290.1485603 150.50706625 297.91345698 161.94360161 304.9543457 174.13037109 C305.38199219 174.86610352 305.80963867 175.60183594 306.25024414 176.35986328 C339.18311458 233.32550216 352.99278143 296.71772041 351.9543457 362.13037109 C351.94564453 363.16693848 351.93694336 364.20350586 351.92797852 365.27148438 C351.76229941 382.20217474 349.03596688 398.51052522 345.9543457 415.13037109 C345.62942017 416.96748581 345.30512552 418.80471231 344.98168945 420.64208984 C341.59089544 439.29054001 336.11903991 457.5892232 328.9543457 475.13037109 C328.57294434 476.07605957 328.19154297 477.02174805 327.79858398 477.99609375 C311.55082053 518.09708885 289.38337431 554.3000155 259.9543457 586.13037109 C259.03685623 587.13873763 258.12023582 588.14789539 257.2043457 589.15771484 C249.81856947 597.28797934 242.29542062 604.97702205 233.9543457 612.13037109 C232.89928177 613.04920986 231.84462596 613.96851738 230.7902832 614.88818359 C218.45115826 625.6130877 205.70467152 635.28253196 191.9543457 644.13037109 C190.94243164 644.78521484 189.93051758 645.44005859 188.88793945 646.11474609 C170.75311567 657.55836371 151.72981063 666.89059404 131.9543457 675.13037109 C131.12418945 675.47970703 130.2940332 675.82904297 129.4387207 676.18896484 C118.35135447 680.82110275 107.07955222 684.32535319 95.48022461 687.43945312 C93.16221302 688.07351197 90.86114766 688.74725582 88.55981445 689.43896484 C74.0369499 693.68516758 59.08997436 695.5590843 44.13623047 697.63720703 C41.10746014 698.05648681 41.10746014 698.05648681 38.79125977 698.67407227 C7.08619516 706.54977212 -33.39200213 699.84016784 -65.0456543 694.13037109 C-65.8907959 693.97842285 -66.7359375 693.82647461 -67.60668945 693.66992188 C-119.88503668 684.0282051 -170.66446053 660.36415773 -212.0456543 627.13037109 C-213.41657227 626.05916016 -213.41657227 626.05916016 -214.81518555 624.96630859 C-225.0509821 616.92980274 -235.0223477 608.51703232 -244.0456543 599.13037109 C-246.47995495 596.6803399 -248.92617882 594.24628604 -251.4050293 591.84130859 C-257.44259371 585.9418584 -262.79991869 579.7345301 -268.0456543 573.13037109 C-268.96837405 572.00782881 -269.89293848 570.88680095 -270.8190918 569.76708984 C-278.86555145 559.97691883 -286.07526106 549.70873907 -293.0456543 539.13037109 C-293.74045898 538.07978516 -294.43526367 537.02919922 -295.15112305 535.94677734 C-297.20333279 532.72187631 -299.14535293 529.44592366 -301.0456543 526.13037109 C-301.54145996 525.27217773 -302.03726563 524.41398438 -302.5480957 523.52978516 C-311.85646061 507.27070365 -319.20209017 490.7923588 -325.82958984 473.3059082 C-326.90349265 470.50160107 -328.02386752 467.72343827 -329.16674805 464.94677734 C-336.07882651 447.73317828 -339.8400902 429.33508379 -343.0456543 411.13037109 C-343.23788574 410.05464844 -343.43011719 408.97892578 -343.62817383 407.87060547 C-346.31132569 392.60181565 -347.84029495 377.62674055 -348.0456543 362.13037109 C-348.06611816 360.92687012 -348.08658203 359.72336914 -348.10766602 358.48339844 C-348.4978162 332.91082704 -346.5876757 308.31017555 -342.0456543 283.13037109 C-341.89370605 282.28522949 -341.74175781 281.44008789 -341.58520508 280.56933594 C-331.9434883 228.29098871 -308.27944093 177.51156486 -275.0456543 136.13037109 C-274.33151367 135.21642578 -273.61737305 134.30248047 -272.8815918 133.36083984 C-264.84508594 123.12504329 -256.43231552 113.15367769 -247.0456543 104.13037109 C-244.59562311 101.69607044 -242.16156925 99.24984657 -239.7565918 96.77099609 C-233.8571416 90.73343168 -227.6498133 85.37610671 -221.0456543 80.13037109 C-219.92311201 79.20765134 -218.80208415 78.28308691 -217.68237305 77.35693359 C-183.97697332 49.65474755 -142.76351344 25.92388882 -100.29663086 15 C-97.17095747 14.16388941 -94.10955526 13.2113973 -91.0300293 12.22021484 C-84.12894812 10.08520356 -77.18456678 8.50119612 -70.1081543 7.06787109 C-68.22060425 6.68272339 -68.22060425 6.68272339 -66.29492188 6.28979492 C-58.63442511 4.76041533 -50.97159054 3.38756949 -43.2331543 2.31787109 C-42.02961304 2.15049438 -42.02961304 2.15049438 -40.80175781 1.97973633 C-27.24362061 0.24929168 -13.64768196 -0.03453428 0 0 Z M-54.0456543 39.13037109 C-55.05418457 39.30697266 -56.06271484 39.48357422 -57.10180664 39.66552734 C-106.32413839 48.54182026 -152.70513297 70.53110021 -192.0456543 101.13037109 C-192.8797583 101.7776416 -192.8797583 101.7776416 -193.73071289 102.43798828 C-211.6597413 116.46437426 -229.28825508 132.96960901 -243.0456543 151.13037109 C-244.06648639 152.43607861 -245.08874243 153.74067352 -246.11206055 155.04443359 C-279.80191898 198.20416728 -300.53727418 247.32748795 -310.0456543 301.13037109 C-310.21226562 302.02191895 -310.37887695 302.9134668 -310.55053711 303.83203125 C-313.226956 318.58004137 -313.33101988 333.31270205 -313.3581543 348.25537109 C-313.36183014 349.22139252 -313.36550598 350.18741394 -313.36929321 351.18270874 C-313.40785267 370.61605519 -312.09579337 389.77634806 -308.4206543 408.88037109 C-308.29382263 409.54815582 -308.16699097 410.21594055 -308.03631592 410.90396118 C-305.40311056 424.64204586 -301.6485766 437.91709486 -297.0456543 451.13037109 C-296.72870605 452.04286621 -296.41175781 452.95536133 -296.08520508 453.89550781 C-284.3173545 487.23470087 -267.51199601 517.15193917 -246.0456543 545.13037109 C-245.33280273 546.06107422 -244.61995117 546.99177734 -243.88549805 547.95068359 C-230.41478074 565.15558332 -214.4717031 581.92954234 -197.0456543 595.13037109 C-195.73994678 596.15120319 -194.43535187 597.17345923 -193.1315918 598.19677734 C-150.09989061 631.78669548 -100.79473852 653.00175633 -47.0456543 662.13037109 C-46.1263916 662.29698242 -45.20712891 662.46359375 -44.26000977 662.63525391 C1.05092143 670.6827552 51.00120553 665.48195778 94.68066406 651.83544922 C97.1788238 651.0607595 99.68715195 650.32486833 102.1965332 649.58740234 C105.63916383 648.55491243 108.96211265 647.42846188 112.2668457 646.00537109 C116.03808694 644.38224428 119.81183118 642.77584811 123.61450195 641.22802734 C170.47509672 621.94591286 215.99484074 589.62845594 246.9543457 549.13037109 C247.94283334 547.88080563 248.93250905 546.63217948 249.9230957 545.38427734 C263.21032023 528.50683311 274.11403186 510.73247418 283.73706055 491.54150391 C284.71847597 489.59756915 285.7318594 487.66979221 286.75512695 485.74755859 C291.37979447 476.99684001 294.63649867 467.69549018 298.06860352 458.43164062 C298.7983354 456.53570547 299.61341403 454.67284924 300.45043945 452.82177734 C306.42623285 438.15392082 309.8988429 421.72658526 312.8293457 406.19287109 C313.01996582 405.20319336 313.21058594 404.21351563 313.40698242 403.19384766 C316.61466015 385.19021212 317.36577909 366.94291449 317.3293457 348.69287109 C317.32902847 347.20507645 317.32902847 347.20507645 317.32870483 345.68722534 C317.29176636 328.1950191 316.06947871 311.364174 312.9543457 294.13037109 C312.77774414 293.12184082 312.60114258 292.11331055 312.41918945 291.07421875 C302.57546149 236.48710137 276.74280893 184.50921635 239.9543457 143.13037109 C239.29926025 142.38988525 238.6441748 141.64939941 237.96923828 140.88647461 C225.37505436 126.75604528 212.21033493 113.36870296 196.9543457 102.13037109 C195.87810673 101.29217163 194.80519395 100.44968445 193.7355957 99.60302734 C125.01153893 45.2856542 31.89876087 23.59530398 -54.0456543 39.13037109 Z " fill="#0C6BA0" transform="translate(658.045654296875,149.86962890625)"/>
<path d="M0 0 C2.518046 0.00537366 5.03591432 0.00000795 7.55395508 -0.00634766 C21.61391914 -0.01391343 35.42149787 0.64964885 49.3293457 2.88037109 C50.42786865 3.05375 51.5263916 3.22712891 52.65820312 3.40576172 C84.37505191 8.52422673 84.37505191 8.52422673 97.6652832 13.05444336 C100.63393303 14.02555676 103.61737106 14.88759271 106.62614441 15.72413635 C116.60272904 18.52929561 126.10232251 22.16466037 135.6418457 26.19287109 C136.42293701 26.52018219 137.20402832 26.84749329 138.00878906 27.1847229 C150.24825796 32.32933311 162.06765666 37.92638718 173.51147461 44.6875 C176.01410906 46.16567006 178.53525116 47.6079979 181.05981445 49.04833984 C202.82341454 61.61675642 222.84394998 77.21440696 241.0871582 94.47412109 C243.07114952 96.3121512 245.03850309 98.04811636 247.1262207 99.75537109 C249.37186786 101.64121843 251.21770951 103.39233851 253.0793457 105.63037109 C255.69556944 108.70760342 258.39470875 111.68085923 261.16625977 114.61914062 C267.90391015 121.78671727 274.02464802 129.28712101 279.9543457 137.13037109 C280.77854004 138.2097998 280.77854004 138.2097998 281.61938477 139.31103516 C290.1485603 150.50706625 297.91345698 161.94360161 304.9543457 174.13037109 C305.38199219 174.86610352 305.80963867 175.60183594 306.25024414 176.35986328 C339.18311458 233.32550216 352.99278143 296.71772041 351.9543457 362.13037109 C351.94564453 363.16693848 351.93694336 364.20350586 351.92797852 365.27148438 C351.76229941 382.20217474 349.03596688 398.51052522 345.9543457 415.13037109 C345.62942017 416.96748581 345.30512552 418.80471231 344.98168945 420.64208984 C341.59089544 439.29054001 336.11903991 457.5892232 328.9543457 475.13037109 C328.57294434 476.07605957 328.19154297 477.02174805 327.79858398 477.99609375 C311.55082053 518.09708885 289.38337431 554.3000155 259.9543457 586.13037109 C259.03685623 587.13873763 258.12023582 588.14789539 257.2043457 589.15771484 C249.81856947 597.28797934 242.29542062 604.97702205 233.9543457 612.13037109 C232.89928177 613.04920986 231.84462596 613.96851738 230.7902832 614.88818359 C218.45115826 625.6130877 205.70467152 635.28253196 191.9543457 644.13037109 C190.94243164 644.78521484 189.93051758 645.44005859 188.88793945 646.11474609 C170.75311567 657.55836371 151.72981063 666.89059404 131.9543457 675.13037109 C131.12418945 675.47970703 130.2940332 675.82904297 129.4387207 676.18896484 C118.35135447 680.82110275 107.07955222 684.32535319 95.48022461 687.43945312 C93.16221302 688.07351197 90.86114766 688.74725582 88.55981445 689.43896484 C74.0369499 693.68516758 59.08997436 695.5590843 44.13623047 697.63720703 C41.10746014 698.05648681 41.10746014 698.05648681 38.79125977 698.67407227 C7.08619516 706.54977212 -33.39200213 699.84016784 -65.0456543 694.13037109 C-65.8907959 693.97842285 -66.7359375 693.82647461 -67.60668945 693.66992188 C-119.88503668 684.0282051 -170.66446053 660.36415773 -212.0456543 627.13037109 C-213.41657227 626.05916016 -213.41657227 626.05916016 -214.81518555 624.96630859 C-225.0509821 616.92980274 -235.0223477 608.51703232 -244.0456543 599.13037109 C-246.47995495 596.6803399 -248.92617882 594.24628604 -251.4050293 591.84130859 C-257.44259371 585.9418584 -262.79991869 579.7345301 -268.0456543 573.13037109 C-268.96837405 572.00782881 -269.89293848 570.88680095 -270.8190918 569.76708984 C-278.86555145 559.97691883 -286.07526106 549.70873907 -293.0456543 539.13037109 C-293.74045898 538.07978516 -294.43526367 537.02919922 -295.15112305 535.94677734 C-297.20333279 532.72187631 -299.14535293 529.44592366 -301.0456543 526.13037109 C-301.54145996 525.27217773 -302.03726563 524.41398438 -302.5480957 523.52978516 C-311.85646061 507.27070365 -319.20209017 490.7923588 -325.82958984 473.3059082 C-326.90349265 470.50160107 -328.02386752 467.72343827 -329.16674805 464.94677734 C-336.07882651 447.73317828 -339.8400902 429.33508379 -343.0456543 411.13037109 C-343.23788574 410.05464844 -343.43011719 408.97892578 -343.62817383 407.87060547 C-346.31132569 392.60181565 -347.84029495 377.62674055 -348.0456543 362.13037109 C-348.06611816 360.92687012 -348.08658203 359.72336914 -348.10766602 358.48339844 C-348.4978162 332.91082704 -346.5876757 308.31017555 -342.0456543 283.13037109 C-341.89370605 282.28522949 -341.74175781 281.44008789 -341.58520508 280.56933594 C-331.9434883 228.29098871 -308.27944093 177.51156486 -275.0456543 136.13037109 C-274.33151367 135.21642578 -273.61737305 134.30248047 -272.8815918 133.36083984 C-264.84508594 123.12504329 -256.43231552 113.15367769 -247.0456543 104.13037109 C-244.59562311 101.69607044 -242.16156925 99.24984657 -239.7565918 96.77099609 C-233.8571416 90.73343168 -227.6498133 85.37610671 -221.0456543 80.13037109 C-219.92311201 79.20765134 -218.80208415 78.28308691 -217.68237305 77.35693359 C-183.97697332 49.65474755 -142.76351344 25.92388882 -100.29663086 15 C-97.17095747 14.16388941 -94.10955526 13.2113973 -91.0300293 12.22021484 C-84.12894812 10.08520356 -77.18456678 8.50119612 -70.1081543 7.06787109 C-68.22060425 6.68272339 -68.22060425 6.68272339 -66.29492188 6.28979492 C-58.63442511 4.76041533 -50.97159054 3.38756949 -43.2331543 2.31787109 C-42.02961304 2.15049438 -42.02961304 2.15049438 -40.80175781 1.97973633 C-27.24362061 0.24929168 -13.64768196 -0.03453428 0 0 Z M-219.47583008 85.77099609 C-221.07304695 87.15409152 -222.69342608 88.50435201 -224.32299805 89.84912109 C-237.22327842 100.55808526 -249.67471957 112.28360019 -259.9987793 125.52880859 C-261.88182315 127.92214295 -263.8524961 130.2113156 -265.86279297 132.49780273 C-277.49030514 145.81982852 -287.38526687 160.73412677 -296.0456543 176.13037109 C-296.51213379 176.95794922 -296.97861328 177.78552734 -297.45922852 178.63818359 C-320.0141448 218.86461957 -334.43711426 260.99241848 -340.7956543 306.75537109 C-340.91118652 307.58206299 -341.02671875 308.40875488 -341.14575195 309.26049805 C-342.89290716 322.67965753 -343.25413132 336.11865951 -343.2331543 349.63037109 C-343.23221771 350.41816956 -343.23128113 351.20596802 -343.23031616 352.01763916 C-343.09209392 405.9651655 -330.2296647 459.31656528 -305.08178711 507.13916016 C-303.9689319 509.27781403 -302.89319197 511.43294909 -301.8190918 513.59130859 C-291.14855611 534.77341482 -277.27368727 554.00061845 -262.0456543 572.13037109 C-261.59270996 572.675 -261.13976562 573.21962891 -260.6730957 573.78076172 C-249.18447066 587.55320022 -236.82432401 601.03306207 -222.6472168 612.08349609 C-220.25388244 613.96653994 -217.96470979 615.9372129 -215.67822266 617.94750977 C-202.3509039 629.57964166 -187.43490053 639.44769453 -172.0456543 648.13037109 C-171.24466309 648.58621582 -170.44367188 649.04206055 -169.6184082 649.51171875 C-151.47486317 659.79091591 -132.92949678 668.93636581 -113.08911133 675.44921875 C-111.04169521 676.13169079 -109.01055356 676.85068963 -106.97924805 677.57958984 C-87.55285915 684.46222436 -67.59752869 689.025102 -47.2331543 692.00537109 C-46.53198486 692.10882843 -45.83081543 692.21228577 -45.10839844 692.31887817 C-29.61335725 694.57230899 -14.18625683 695.34215323 1.4543457 695.31787109 C2.24214417 695.31693451 3.02994263 695.31599792 3.84161377 695.31503296 C45.72772485 695.20771401 86.95409752 687.49540373 125.9543457 672.13037109 C126.99768066 671.72334961 128.04101562 671.31632813 129.1159668 670.89697266 C163.92840577 657.17636913 195.26062677 638.11956429 223.9543457 614.13037109 C224.46126953 613.71513184 224.96819336 613.29989258 225.49047852 612.87207031 C239.3926185 601.48251893 252.89589517 588.91211981 263.94262695 574.69677734 C265.81074496 572.3135666 267.77017451 570.03855127 269.76928711 567.76513672 C281.39211451 554.45119 291.33233065 539.54062664 299.9543457 524.13037109 C300.48560059 523.18387695 301.01685547 522.23738281 301.56420898 521.26220703 C345.34770196 442.78304517 359.55775963 349.9548905 335.93041992 262.56445312 C334.04786937 255.94115246 331.99629685 249.37364568 329.8918457 242.81787109 C329.5805069 241.84533386 329.5805069 241.84533386 329.26287842 240.85314941 C326.54875198 232.42833359 323.49748721 224.24016671 319.9543457 216.13037109 C319.5533667 215.20232666 319.1523877 214.27428223 318.73925781 213.31811523 C306.91468876 186.2233917 292.08543267 161.46157861 273.9543457 138.13037109 C273.29047852 137.27314453 272.62661133 136.41591797 271.94262695 135.53271484 C267.19374487 129.4963166 262.14333958 123.78959176 256.9543457 118.13037109 C256.06167607 117.13363979 255.16977891 116.13621624 254.27856445 115.13818359 C243.156779 102.77277857 231.05266641 91.38459558 217.9543457 81.13037109 C217.09196289 80.42654297 216.22958008 79.72271484 215.34106445 78.99755859 C194.80527267 62.60227151 172.53680146 49.5518521 148.9543457 38.13037109 C148.13804687 37.7267334 147.32174805 37.3230957 146.48071289 36.90722656 C110.46522379 19.19268816 68.02623784 7.53488006 27.8527832 6.27099609 C24.9543457 6.13037109 24.9543457 6.13037109 22.7644043 5.63647461 C19.20505224 4.99542015 15.69985222 4.92987676 12.0949707 4.89208984 C11.32599457 4.88234131 10.55701843 4.87259277 9.76473999 4.86254883 C-73.03591533 4.03432487 -156.62515472 30.69505017 -219.47583008 85.77099609 Z " fill="#EBF1F4" transform="translate(658.045654296875,149.86962890625)"/>
<path d="M0 0 C0.9060498 -0.00181274 1.81209961 -0.00362549 2.74560547 -0.00549316 C21.75762499 -0.00117618 40.42637673 1.71458353 59.125 5.125 C59.84381348 5.25372498 60.56262695 5.38244995 61.30322266 5.51507568 C76.760979 8.29442387 92.23829766 11.36847127 106.80224609 17.37939453 C109.11796424 18.32129545 111.44571848 19.18557374 113.80078125 20.0234375 C139.51719659 29.28069796 164.83131291 41.70822519 187.25 57.375 C187.80929199 57.76300781 188.36858398 58.15101563 188.94482422 58.55078125 C197.01040746 64.15775222 204.73827662 70.03665601 212.25 76.375 C213.74466797 77.59123047 213.74466797 77.59123047 215.26953125 78.83203125 C223.10603104 85.28206427 230.37153431 92.28308344 237.5625 99.4375 C238.48135986 100.34717529 239.40021973 101.25685059 240.34692383 102.1940918 C246.40704547 108.2815729 251.90927663 114.65261642 257.25 121.375 C258.29835145 122.65303866 259.34883435 123.92933479 260.40234375 125.203125 C267.25563175 133.58654962 273.44335869 142.23837613 279.25 151.375 C279.92546875 152.43074219 280.6009375 153.48648438 281.296875 154.57421875 C295.94514602 177.92356276 308.69479782 202.8101924 316.328125 229.3828125 C317.24246383 232.49133626 317.24246383 232.49133626 318.64453125 235.8828125 C320.89232294 241.80651991 322.2493203 247.96504761 323.6875 254.125 C323.91569427 255.09827744 323.91569427 255.09827744 324.14849854 256.09121704 C327.39880442 270.06181882 329.59711913 284.124328 331.25 298.375 C331.3538501 299.19645508 331.4577002 300.01791016 331.56469727 300.86425781 C332.56063306 309.82502888 332.43606257 318.84601143 332.43530273 327.85009766 C332.43746879 330.70881516 332.45561749 333.56713273 332.47460938 336.42578125 C332.53330005 354.9077653 330.84544202 373.00630931 327.5625 391.1875 C327.36933701 392.27078079 327.36933701 392.27078079 327.17227173 393.37594604 C324.77845258 406.67831734 321.55221246 419.55080542 317.25 432.375 C316.91629395 433.38288574 316.58258789 434.39077148 316.23876953 435.42919922 C310.94845105 451.2360296 304.56620119 466.40304949 297.25 481.375 C296.84168945 482.21224609 296.43337891 483.04949219 296.01269531 483.91210938 C286.21179987 503.77076238 274.06732583 522.10095877 260.25 539.375 C259.48429688 540.35339844 258.71859375 541.33179688 257.9296875 542.33984375 C245.63154776 557.79193445 231.46900889 572.95448724 215.9609375 585.21875 C213.1795144 587.43106347 210.50323146 589.74108462 207.8125 592.0625 C178.79236899 616.16522756 144.41183405 634.01870466 108.921875 646.43896484 C106.46135071 647.30095773 104.01163626 648.18832796 101.5625 649.08203125 C84.75271262 655.09362612 67.23958603 658.12965579 49.6875 661.125 C48.46385742 661.33584229 47.24021484 661.54668457 45.97949219 661.76391602 C3.0091254 668.85489874 -41.69721358 664.54963303 -83.75 654.375 C-84.58837402 654.17342285 -85.42674805 653.9718457 -86.29052734 653.76416016 C-91.70601791 652.44299814 -97.01287965 651.12176208 -102.1484375 648.9140625 C-105.21726956 647.6026527 -108.25263304 646.55663571 -111.44238281 645.58935547 C-138.12157632 637.3865173 -163.98467796 623.43520323 -186.75 607.375 C-187.96340612 606.53235686 -189.17694923 605.68991096 -190.390625 604.84765625 C-197.7890938 599.67509921 -204.84785851 594.19898271 -211.75 588.375 C-213.24466797 587.15876953 -213.24466797 587.15876953 -214.76953125 585.91796875 C-222.60603104 579.46793573 -229.87153431 572.46691656 -237.0625 565.3125 C-237.98135986 564.40282471 -238.90021973 563.49314941 -239.84692383 562.5559082 C-245.90704547 556.4684271 -251.40927663 550.09738358 -256.75 543.375 C-257.79835145 542.09696134 -258.84883435 540.82066521 -259.90234375 539.546875 C-266.31692979 531.70010151 -272.19289519 523.64675605 -277.64453125 515.10253906 C-278.63393442 513.5563781 -279.64377908 512.0233423 -280.65625 510.4921875 C-296.21702924 486.29385708 -307.69121992 459.59394116 -316.75 432.375 C-317.05977783 431.46451904 -317.36955566 430.55403809 -317.6887207 429.6159668 C-321.92218689 416.68767979 -324.85232689 403.67972563 -327.06298828 390.26904297 C-327.50235977 387.61072274 -327.95913022 384.95580336 -328.41796875 382.30078125 C-336.00354133 337.72949053 -332.3135211 292.11064416 -321.75 248.375 C-321.55374023 247.55257812 -321.35748047 246.73015625 -321.15527344 245.8828125 C-319.5149596 239.09530698 -317.59853009 232.5413809 -314.85546875 226.109375 C-313.75469421 223.38661112 -312.81747935 220.63068872 -311.89160156 217.84448242 C-303.26375926 192.17934402 -290.34478151 167.48058721 -274.75 145.375 C-273.90735686 144.16159388 -273.06491096 142.94805077 -272.22265625 141.734375 C-267.05009921 134.3359062 -261.57398271 127.27714149 -255.75 120.375 C-254.93917969 119.37855469 -254.12835938 118.38210938 -253.29296875 117.35546875 C-246.84293573 109.51896896 -239.84191656 102.25346569 -232.6875 95.0625 C-231.32298706 93.68421021 -231.32298706 93.68421021 -229.9309082 92.27807617 C-223.8434271 86.21795453 -217.47238358 80.71572337 -210.75 75.375 C-209.47196134 74.32664855 -208.19566521 73.27616565 -206.921875 72.22265625 C-198.53845038 65.36936825 -189.88662387 59.18164131 -180.75 53.375 C-179.69425781 52.69953125 -178.63851562 52.0240625 -177.55078125 51.328125 C-154.1057745 36.61983971 -129.17982177 23.98477594 -102.546875 16.19921875 C-100.65317701 15.64115971 -98.77005572 15.04611459 -96.8984375 14.41796875 C-83.46015944 9.96633073 -69.71030878 6.67595284 -55.75 4.375 C-54.62867676 4.19018066 -53.50735352 4.00536133 -52.35205078 3.81494141 C-34.89174907 1.06442569 -17.67251112 -0.00226532 0 0 Z M-82.79882812 15.87207031 C-84.65958276 16.35169425 -86.52501991 16.81304139 -88.390625 17.2734375 C-95.7035135 19.12540277 -102.81568313 21.33270102 -109.9375 23.8125 C-110.7325293 24.08876221 -111.52755859 24.36502441 -112.34667969 24.6496582 C-141.93435044 35.15564494 -169.55055447 50.75351639 -194.75 69.375 C-195.34925293 69.81585938 -195.94850586 70.25671875 -196.56591797 70.7109375 C-203.37389479 75.74681837 -209.82574877 81.07526157 -216.01953125 86.85546875 C-218.17582929 88.84518583 -220.3584626 90.77431447 -222.578125 92.69140625 C-233.24916938 101.99800166 -243.04790929 112.21328437 -251.75 123.375 C-252.65186092 124.46739966 -253.55701284 125.55708784 -254.46484375 126.64453125 C-281.97417011 159.83642769 -303.74511724 200.65921486 -314.75 242.375 C-315.0176416 243.38546387 -315.2852832 244.39592773 -315.56103516 245.43701172 C-322.59612315 272.40037623 -327.00169758 298.9658718 -326.875 326.875 C-326.87211975 327.57452789 -326.8692395 328.27405579 -326.86627197 328.99478149 C-326.84936542 332.52350011 -326.82345685 336.05199475 -326.78710938 339.58056641 C-326.76490454 341.85101082 -326.74855017 344.12154114 -326.74414062 346.39208984 C-326.46437598 422.33420249 -291.24801646 498.72479113 -240.21875 553.68359375 C-238.24813515 555.8319381 -236.36374276 558.01065602 -234.5 560.25 C-203.06253589 596.4256465 -155.82811987 625.13918421 -110.75 640.375 C-109.94546387 640.64908691 -109.14092773 640.92317383 -108.31201172 641.20556641 C-85.48721969 648.9082364 -62.62690806 654.20830132 -38.75 657.375 C-37.93273437 657.49359375 -37.11546875 657.6121875 -36.2734375 657.734375 C-7.25541672 661.92254295 22.42741115 659.84791517 51.25 655.375 C52.96322521 655.13187409 54.67672876 654.89069329 56.390625 654.65234375 C94.79429888 649.08368562 133.08942277 634.36632776 166.25 614.375 C167.38477783 613.6953418 167.38477783 613.6953418 168.54248047 613.00195312 C188.25612615 601.10768646 207.68171826 587.5777929 223.703125 570.921875 C225.35041198 569.27458802 227.08679486 567.80513404 228.875 566.3125 C238.72304113 557.80302757 247.19753291 547.54949594 255.25 537.375 C256.13090986 536.28597227 257.01245045 535.19745452 257.89453125 534.109375 C268.69919911 520.69058253 277.75436285 506.34350354 286.25 491.375 C286.79624023 490.43043945 286.79624023 490.43043945 287.35351562 489.46679688 C299.31028141 468.67907427 308.5133326 445.34851798 315.25 422.375 C315.58088623 421.27357666 315.58088623 421.27357666 315.91845703 420.14990234 C322.83657585 396.65332246 327.15199767 370.62471165 327.23535156 346.12792969 C327.25170169 343.05519587 327.32553286 339.98595812 327.3984375 336.9140625 C327.83702148 312.53466387 325.9511656 288.12629122 320.25 264.375 C320.07823242 263.65296387 319.90646484 262.93092773 319.72949219 262.18701172 C318.79109674 258.27879792 317.81221157 254.38303454 316.79248047 250.49511719 C316.38174683 248.88989174 315.98788899 247.28033594 315.60205078 245.66894531 C310.61351413 224.99397033 302.61691083 205.42190146 293.25 186.375 C292.90114746 185.6634375 292.55229492 184.951875 292.19287109 184.21875 C278.93771713 157.53358971 261.24966497 132.97750811 240.93359375 111.24609375 C239.09087524 109.27462635 237.27145092 107.29549975 235.47265625 105.28515625 C229.74020311 98.89288852 223.76951558 92.97422735 217.25 87.375 C216.31027344 86.54742187 215.37054687 85.71984375 214.40234375 84.8671875 C177.94546821 53.04824727 134.97159755 32.20454676 89.25 17.375 C88.40566406 17.10026855 87.56132813 16.82553711 86.69140625 16.54248047 C63.96061088 9.35671278 38.09340109 5.46730636 14.28710938 5.39404297 C11.36581022 5.37572614 8.44749599 5.31214523 5.52709961 5.23997498 C-24.63347977 4.53366888 -53.57588 8.2741038 -82.79882812 15.87207031 Z " fill="#ECF2F5" transform="translate(659.75,167.625)"/>
<path d="M0 0 C0.96602142 -0.00367584 1.93204285 -0.00735168 2.92733765 -0.01113892 C22.5075134 -0.04998971 41.7664608 1.31365217 61 5.0625 C61.67712036 5.19222198 62.35424072 5.32194397 63.05187988 5.45559692 C73.77179242 7.51814216 84.25316992 10.03067566 94.59912109 13.54150391 C96.91923739 14.32748623 99.24926456 15.07671562 101.58203125 15.82421875 C136.50987384 27.27109931 167.88469355 44.98923584 196.875 67.3125 C197.80183594 68.02277344 198.72867187 68.73304688 199.68359375 69.46484375 C216.89530302 82.93128509 233.67278482 98.88462102 246.875 116.3125 C247.89583209 117.61820752 248.91808814 118.92280243 249.94140625 120.2265625 C283.63126468 163.38629618 304.36661988 212.50961685 313.875 266.3125 C314.12491699 267.64982178 314.12491699 267.64982178 314.37988281 269.01416016 C317.05630171 283.76217027 317.16036558 298.49483096 317.1875 313.4375 C317.19301376 314.88653214 317.19301376 314.88653214 317.19863892 316.36483765 C317.2366204 335.50689585 316.07171711 354.45133169 312.3125 373.25 C312.05927979 374.53559814 311.80605957 375.82119629 311.54516602 377.14575195 C309.57203697 386.88636634 307.07732719 396.45629611 304.3125 406 C303.76710571 407.88609985 303.76710571 407.88609985 303.21069336 409.81030273 C300.89491111 417.54427864 298.08882794 424.91231522 294.875 432.3125 C294.19288104 433.97503556 293.51432428 435.63903844 292.83984375 437.3046875 C273.63689518 483.89459735 241.81460495 528.25464856 201.875 559.3125 C200.80698536 560.20093994 199.74206131 561.09310379 198.6796875 561.98828125 C181.73302491 576.14386903 162.96114511 587.30733003 143.23779297 597.12744141 C141.31265342 598.09299497 139.405394 599.09413285 137.50390625 600.10546875 C128.78590213 604.71797306 119.51944008 608.00774498 110.28393555 611.4206543 C108.0722054 612.23948983 105.86578795 613.07116443 103.66015625 613.90625 C85.16625539 620.83045179 65.68072944 625.12454871 46.1875 628.125 C45.47239258 628.23666504 44.75728516 628.34833008 44.02050781 628.46337891 C12.00690654 633.00673065 -22.37202268 631.9959489 -54.125 626.3125 C-55.13643066 626.13589844 -56.14786133 625.95929687 -57.18994141 625.77734375 C-80.54794607 621.56377351 -103.59027912 614.27018885 -125.125 604.3125 C-126.06730469 603.88630371 -127.00960937 603.46010742 -127.98046875 603.02099609 C-156.2083029 590.21275189 -181.94320945 573.9226075 -205.125 553.3125 C-205.86548584 552.65741455 -206.60597168 552.0023291 -207.36889648 551.32739258 C-221.49932581 538.73320866 -234.88666813 525.56848922 -246.125 510.3125 C-246.96319947 509.23626103 -247.80568664 508.16334825 -248.65234375 507.09375 C-271.51710466 478.16453203 -287.43861069 445.15262214 -299.125 410.3125 C-299.41213867 409.47895996 -299.69927734 408.64541992 -299.99511719 407.78662109 C-303.72706018 396.86764915 -306.20131642 385.75351507 -308.375 374.4375 C-308.62145264 373.17349365 -308.86790527 371.9094873 -309.12182617 370.60717773 C-312.56717099 351.82986981 -313.53805537 332.9375167 -313.5 313.875 C-313.49978851 312.8831369 -313.49957703 311.8912738 -313.49935913 310.86935425 C-313.46242066 293.37714801 -312.24013301 276.5463029 -309.125 259.3125 C-308.86009766 257.79970459 -308.86009766 257.79970459 -308.58984375 256.25634766 C-298.74611579 201.66923028 -272.91346323 149.69134525 -236.125 108.3125 C-235.46991455 107.57201416 -234.8148291 106.83152832 -234.13989258 106.06860352 C-221.54570866 91.93817419 -208.38098922 78.55083187 -193.125 67.3125 C-192.04876103 66.47430053 -190.97584825 65.63181336 -189.90625 64.78515625 C-148.28799091 31.89503927 -99.05316367 12.48956804 -47.125 3.3125 C-45.78767822 3.06258301 -45.78767822 3.06258301 -44.42333984 2.80761719 C-29.67532973 0.13119829 -14.94266904 0.02713442 0 0 Z M-36.125 7.3125 C-37.17026855 7.43826416 -38.21553711 7.56402832 -39.29248047 7.69360352 C-56.24654444 9.80465793 -72.62958964 13.17728835 -88.85302734 18.57763672 C-91.32411815 19.37690422 -93.80978525 20.1128693 -96.30078125 20.84765625 C-108.78671028 24.63851013 -120.47304062 29.55989201 -132.1875 35.25 C-132.87165985 35.58053375 -133.5558197 35.9110675 -134.26071167 36.25161743 C-147.60543803 42.73269971 -160.33529907 50.14858363 -172.5625 58.5625 C-173.35543457 59.10696777 -174.14836914 59.65143555 -174.96533203 60.21240234 C-182.38881894 65.37933901 -189.40530546 70.97535632 -196.31982422 76.79980469 C-198.00281485 78.21011168 -199.70217999 79.59670429 -201.41015625 80.9765625 C-214.57794539 91.71112914 -226.77024132 103.84074764 -237.125 117.3125 C-238.22241865 118.6952338 -239.32152373 120.07663003 -240.421875 121.45703125 C-252.94420991 137.24125847 -263.44514921 153.64187643 -273.125 171.3125 C-273.69347656 172.35011475 -273.69347656 172.35011475 -274.2734375 173.40869141 C-284.11311981 191.62227628 -291.54989219 211.39972042 -297.125 231.3125 C-297.37733398 232.20694824 -297.62966797 233.10139648 -297.88964844 234.02294922 C-303.88264392 255.62810536 -307.77157541 277.85988291 -308.125 300.3125 C-308.14546387 301.43640137 -308.16592773 302.56030273 -308.18701172 303.71826172 C-308.71357123 337.3876085 -306.10660929 370.82189753 -295.82177734 403.09130859 C-295.18173563 405.13163777 -294.59057939 407.17777114 -294.01953125 409.23828125 C-283.80216906 444.75929132 -264.87589747 478.36053088 -242.125 507.3125 C-241.35542969 508.29605469 -240.58585937 509.27960938 -239.79296875 510.29296875 C-226.40440351 527.01058264 -211.12233392 543.27066267 -194.125 556.3125 C-192.87431094 557.30251555 -191.6243662 558.29347183 -190.375 559.28515625 C-125.64792889 610.21692391 -43.52126711 633.07435478 38.29296875 624.0703125 C49.24645477 622.67031699 60.07307662 620.58253148 70.875 618.3125 C72.18815186 618.04445557 72.18815186 618.04445557 73.52783203 617.77099609 C119.33159474 608.22968902 162.9715175 584.82484252 198.875 555.3125 C199.41334473 554.87711914 199.95168945 554.44173828 200.50634766 553.99316406 C215.65271498 541.70451672 229.99609051 527.79790952 241.875 512.3125 C242.81806607 511.15465275 243.76497555 509.99992977 244.71484375 508.84765625 C288.86135405 455.11110932 312.26520562 385.24475341 312 316 C311.99745209 315.32252716 311.99490417 314.64505432 311.99227905 313.947052 C311.97233642 309.40193269 311.92856535 304.8573627 311.875 300.3125 C311.86774902 299.42626953 311.86049805 298.54003906 311.85302734 297.62695312 C311.65882667 282.34105608 308.63288969 267.30282485 305.875 252.3125 C305.72192383 251.45156738 305.56884766 250.59063477 305.41113281 249.70361328 C303.4804654 239.02417092 300.2441245 228.75638348 296.9375 218.4375 C296.62070786 217.44594406 296.62070786 217.44594406 296.29751587 216.43435669 C286.19311882 184.98905037 270.78635686 155.06710554 250.29980469 129.12255859 C248.87252244 127.30935253 247.46928352 125.47964054 246.0703125 123.64453125 C231.97946156 105.2599658 215.42778536 87.25961494 196.875 73.3125 C195.64413164 72.36510229 194.41369596 71.41714227 193.18359375 70.46875 C165.01151721 48.89423669 134.97417307 33.37698306 101.66870117 21.35742188 C99.49403592 20.54403664 97.35356342 19.63902379 95.23046875 18.69921875 C81.76264302 13.13335363 66.61082177 10.91578419 52.3125 8.5 C51.10198975 8.2932666 49.89147949 8.0865332 48.64428711 7.87353516 C34.3510966 5.5592976 20.14095992 5.12582429 5.69726562 5.12719727 C3.14175649 5.12501431 0.58668325 5.1067816 -1.96875 5.08789062 C-13.47684467 5.04865699 -24.71154256 5.87353955 -36.125 7.3125 Z " fill="#ECF1F4" transform="translate(658.125,184.6875)"/>
<path d="M0 0 C2.48321659 0.00535543 4.96625178 0.00002395 7.44946289 -0.00634766 C22.37339092 -0.01600692 36.76453336 1.05088086 51.42797852 3.88037109 C52.132854 4.0145343 52.83772949 4.14869751 53.56396484 4.28692627 C63.05528067 6.10277079 72.30636878 8.10982595 81.4230957 11.38818359 C84.04705073 12.30253748 86.69240799 13.13712626 89.34204102 13.97412109 C100.64254278 17.57560181 111.11030461 21.51743387 121.55297852 27.13037109 C123.02427221 27.79394443 124.5028965 28.44166469 125.99047852 29.06787109 C138.79588035 34.69090733 150.20575572 42.01882155 161.55297852 50.13037109 C161.22297852 51.12037109 160.89297852 52.11037109 160.55297852 53.13037109 C157.70950403 51.76441951 155.07218399 50.23948572 152.42797852 48.52099609 C130.03312876 34.08578938 110.24255348 26.67053305 83.36547852 26.81787109 C82.27623077 26.82160233 82.27623077 26.82160233 81.16497803 26.82540894 C54.36039471 26.96727697 29.05316518 33.52078903 7.48266602 50.19677734 C4.76486592 51.51166444 3.3879692 51.06669829 0.55297852 50.13037109 C-1.74389648 48.78271484 -1.74389648 48.78271484 -4.19702148 47.06787109 C-17.193373 38.53242942 -31.88588957 32.61874102 -46.94702148 28.94287109 C-47.96119141 28.6919873 -47.96119141 28.6919873 -48.99584961 28.43603516 C-80.39809731 21.1628307 -112.18670844 27.58236099 -139.49731445 43.89794922 C-142.79806399 45.98437342 -145.81104385 48.35256391 -148.72045898 50.95068359 C-150.44702148 52.13037109 -150.44702148 52.13037109 -154.44702148 52.13037109 C-152.93558403 47.84959018 -149.78565471 45.93551801 -146.13452148 43.56787109 C-145.47427979 43.13659912 -144.81403809 42.70532715 -144.13378906 42.26098633 C-112.43768853 22.01059869 -76.56565943 9.65260879 -39.75952148 2.81787109 C-38.91252686 2.65859131 -38.06553223 2.49931152 -37.19287109 2.33520508 C-24.85309159 0.15462872 -12.49182533 -0.03197042 0 0 Z " fill="#0A69A0" transform="translate(656.447021484375,227.86962890625)"/>
<path d="M0 0 C0.66 0.33 1.32 0.66 2 1 C0.67840172 4.96479483 -1.77305797 6.24072236 -5.125 8.4375 C-5.77879639 8.86853027 -6.43259277 9.29956055 -7.10620117 9.74365234 C-26.24994099 22.04141719 -47.44859863 31.76967234 -69 39 C-70.12148438 39.39251953 -70.12148438 39.39251953 -71.265625 39.79296875 C-73.50009318 40.56479841 -75.74646106 41.28563161 -78 42 C-79.74216797 42.57041016 -79.74216797 42.57041016 -81.51953125 43.15234375 C-89.75362572 45.76738171 -97.98729013 47.70625725 -106.5 49.1875 C-107.38768066 49.34210693 -108.27536133 49.49671387 -109.18994141 49.65600586 C-112.12220062 50.14120173 -115.05792076 50.57832221 -118 51 C-119.22017822 51.17950195 -120.44035645 51.35900391 -121.69750977 51.54394531 C-133.76400325 53.20677472 -145.77123902 53.3958093 -157.9375 53.375 C-158.97092529 53.37545319 -160.00435059 53.37590637 -161.0690918 53.37637329 C-176.20107746 53.35690952 -190.73572639 52.65016005 -205.58740234 49.50830078 C-207.76808459 49.04886135 -209.94741119 48.64848255 -212.14453125 48.27734375 C-245.09694264 42.41679774 -289.00523203 27.64543602 -314 4 C-314 3.01 -314 2.02 -314 1 C-309.76283037 1.58588024 -306.71644097 4.10575535 -303.3125 6.5 C-291.4396521 14.60005759 -279.11759284 21.73654623 -265 25 C-264.08347656 25.22300781 -263.16695312 25.44601562 -262.22265625 25.67578125 C-230.15355576 32.0035098 -196.17813238 24.76005406 -168 9 C-165.6278017 7.38370042 -163.31432998 5.74842208 -161.0625 3.96875 C-157.98573609 2.52360332 -156.23440445 3.06046348 -153 4 C-150.70858959 5.33221536 -148.59774604 6.67397723 -146.4375 8.1875 C-136.40576004 14.90601699 -125.6507435 19.78874724 -114 23 C-113.00661621 23.27505371 -113.00661621 23.27505371 -111.99316406 23.55566406 C-79.72370049 32.12701371 -46.09391604 27.81054661 -17.31738281 11.37451172 C-11.36946874 7.84661916 -5.65653584 3.97394895 0 0 Z " fill="#0A6AA0" transform="translate(817,719)"/>
<path d="M0 0 C1.85431641 -0.04253906 1.85431641 -0.04253906 3.74609375 -0.0859375 C7.22234748 0.3339171 8.4720986 0.73032465 11.3515625 2.375 C17.03770916 5.48330727 23.02555327 4.82641395 29.34179688 4.6875 C36.54033548 4.74752951 41.16437721 6.54874217 46.5625 11.375 C52.58187687 18.71278811 54.13303698 26.91139055 53.93359375 36.2265625 C52.49558088 48.42696646 44.7847979 58.10849942 35.5625 65.6875 C33.91157964 66.93773615 32.24548878 68.16827831 30.5625 69.375 C29.82386719 69.90480469 29.08523438 70.43460938 28.32421875 70.98046875 C24.68808392 73.42510177 22.11018441 75.08557569 17.5625 74.375 C18.1704699 70.31198167 19.51426752 67.24182525 21.4375 63.625 C28.18755429 50.25470015 29.72705696 37.59123719 25.5546875 23.0078125 C23.72618058 18.1557902 21.22665509 14.03915509 17.5625 10.375 C8.01902499 10.375 -0.57513875 16.76724081 -7.265625 23.078125 C-16.30405411 32.63675146 -22.71338965 44.15922677 -29.4375 55.375 C-34.19412085 63.25794827 -39.38533317 70.42581558 -45.4375 77.375 C-46.035625 78.06980469 -46.63375 78.76460937 -47.25 79.48046875 C-52.67814814 85.37352773 -59.74285469 88.87898399 -67.76953125 89.578125 C-72.10397927 89.66003583 -74.8853938 89.63599566 -78.875 87.75 C-84.06952152 85.74509696 -88.13438949 87.20992269 -93.4375 88.375 C-97.50619688 88.83560719 -98.93502562 88.64633616 -102.5625 86.6875 C-109.1003629 81.42878419 -109.1003629 81.42878419 -109.8203125 77.04296875 C-110.07790395 71.31585227 -109.33777414 67.80233821 -105.4375 63.375 C-99.68121309 57.78317843 -92.32562573 55.04632985 -84.4375 54.375 C-85.3125 60.125 -85.3125 60.125 -86.4375 62.375 C-86.58601844 64.30859586 -86.65880833 66.24842097 -86.6875 68.1875 C-86.71328125 69.22519531 -86.7390625 70.26289062 -86.765625 71.33203125 C-86.39851749 74.73651636 -85.3874248 76.59892285 -83.4375 79.375 C-71.51238876 72.85257074 -64.256952 59.61834447 -57 48.5625 C-25.18222668 0.2620419 -25.18222668 0.2620419 0 0 Z " fill="#E0EAF0" transform="translate(835.4375,629.625)"/>
<path d="M0 0 C4.09343628 1.77639688 5.954119 1.22343756 10.3125 0.4375 C15.87191172 0.01792176 20.66062215 -0.29994547 25.8125 2 C28.78836224 4.90146569 31.0882807 7.4139512 32.3125 11.4375 C32.3370833 14.5251628 31.94217916 17.41914662 31.3125 20.4375 C30.6525 20.4375 29.9925 20.4375 29.3125 20.4375 C29.21839844 21.03433594 29.12429688 21.63117188 29.02734375 22.24609375 C27.68064323 26.37450355 23.9313658 28.32993868 20.3125 30.4375 C15.5823221 32.33946989 11.42230187 33.4375 6.3125 33.4375 C6.79828543 30.31459365 7.3111012 27.44169641 8.3125 24.4375 C8.71573698 18.46396613 8.72502478 13.01646356 6.3125 7.4375 C-5.11864787 16.79316013 -13.49699037 27.63613283 -21.52944946 39.88705444 C-49.08740331 81.82590578 -49.08740331 81.82590578 -70.05078125 87.0234375 C-73.24391111 87.52487715 -76.33024972 87.64506345 -79.5625 87.6875 C-80.73554688 87.71328125 -81.90859375 87.7390625 -83.1171875 87.765625 C-86.6875 87.4375 -86.6875 87.4375 -90.04296875 85.91796875 C-95.29679334 83.78377848 -99.9953184 84.3176642 -105.57226562 84.64257812 C-112.99784849 84.88790359 -117.95393698 82.86733379 -123.5 77.9375 C-124.5828125 76.7 -124.5828125 76.7 -125.6875 75.4375 C-126.491875 74.57125 -126.491875 74.57125 -127.3125 73.6875 C-131.83622084 66.28504771 -132.73788397 58.41806456 -131.25390625 49.96875 C-127.5333651 35.36389281 -116.61651743 24.57091791 -104.1875 16.75 C-100.81810349 14.7564404 -99.7803504 14.4375 -95.6875 14.4375 C-96.25052958 18.37870709 -97.3666945 21.1883723 -99.6875 24.4375 C-100.3475 24.4375 -101.0075 24.4375 -101.6875 24.4375 C-101.80867188 25.01757812 -101.92984375 25.59765625 -102.0546875 26.1953125 C-102.22226562 26.97648437 -102.38984375 27.75765625 -102.5625 28.5625 C-102.72492188 29.32820313 -102.88734375 30.09390625 -103.0546875 30.8828125 C-103.6875 33.4375 -103.6875 33.4375 -104.734375 36.20703125 C-107.89017833 46.90313515 -106.50165401 60.51784549 -101.6875 70.4375 C-99.59133494 73.39547168 -97.34075005 75.97057369 -94.6875 78.4375 C-80.100535 75.81997841 -70.17564275 66.99332965 -61.88037109 55.27441406 C-57.15561755 48.3791273 -52.87626719 41.21851804 -48.5625 34.0625 C-43.00789165 24.85930221 -37.58795701 16.76018114 -29.6875 9.4375 C-28.48673828 8.26380859 -28.48673828 8.26380859 -27.26171875 7.06640625 C-19.6660533 -0.09522118 -10.23584823 -4.99141363 0 0 Z " fill="#DFEAF0" transform="translate(562.6875,282.5625)"/>
<path d="M0 0 C10.68852955 10.13740224 18.69137853 22.80299308 26.58422852 35.13549805 C34.32591011 47.2130872 42.71755667 59.42696667 54.1875 68.25 C57.50675365 62.67839566 58.82707208 58.75231611 58.1875 52.25 C57.32295562 49.54534258 57.32295562 49.54534258 56.1875 47.25 C55.82891484 45.92323492 55.4856424 44.59164079 55.1875 43.25 C56.1775 42.92 57.1675 42.59 58.1875 42.25 C58.1875 42.91 58.1875 43.57 58.1875 44.25 C59.1775 44.3325 60.1675 44.415 61.1875 44.5 C68.22767417 45.52609826 73.53406157 48.93178465 78.1875 54.25 C78.785625 54.848125 79.38375 55.44625 80 56.0625 C81.80744376 59.39200166 81.70242114 62.59617603 81.1875 66.25 C79.47021412 70.94994029 77.32143334 73.45959499 73.1875 76.25 C67.6355554 78.1006482 62.34939618 77.95944098 57 75.5625 C53.78479959 74.1936523 53.53972852 74.10910859 50.0625 75.5 C49.11375 76.0775 48.165 76.655 47.1875 77.25 C41.67862325 78.87762268 36.55354776 78.05539925 31.1875 76.25 C28.20017611 74.58160779 25.74961471 72.50582775 23.1875 70.25 C22.39472656 69.610625 21.60195313 68.97125 20.78515625 68.3125 C11.40777362 60.4522594 5.60640109 50.7601307 -0.41357422 40.29614258 C-10.07863983 23.54040475 -20.81290969 6.11466004 -39.5859375 -1.25390625 C-42.14413574 -1.82389077 -43.40282429 -1.766427 -45.8125 -0.75 C-53.10949519 6.07269051 -55.92545852 15.45126466 -56.28515625 25.14355469 C-56.42235725 37.59454523 -54.01571794 47.83513995 -46.88671875 58.2265625 C-46.53222656 58.89429688 -46.17773438 59.56203125 -45.8125 60.25 C-46.3075 61.735 -46.3075 61.735 -46.8125 63.25 C-52.05521527 61.30349275 -56.2509882 58.433874 -60.8125 55.25 C-61.49828125 54.79625 -62.1840625 54.3425 -62.890625 53.875 C-71.65510809 47.80197234 -79.04960332 38.65224234 -81.8125 28.25 C-82.96581641 19.58002322 -83.32448414 9.49180895 -77.8125 2.25 C-73.24434275 -2.64201915 -68.53895995 -7.50384601 -61.52954102 -7.86889648 C-57.84116828 -7.87747809 -54.1593615 -7.77329743 -50.47265625 -7.671875 C-45.6747118 -7.59020786 -42.22307634 -7.69575897 -37.8125 -9.75 C-23.92829983 -12.523577 -10.78281283 -8.91954277 0 0 Z " fill="#E2EBF1" transform="translate(512.8125,640.75)"/>
<path d="M0 0 C2.93168553 1.09938207 4.95251563 0.71389228 7.99609375 0.24609375 C15.30296283 -0.65444082 23.9215826 -1.68681063 30.453125 2.3046875 C43.30835386 12.55943113 52.2064574 25.49221735 59.95898438 39.81518555 C64.34608036 47.74902966 69.82479131 54.88711891 75.5 61.9375 C76.24141235 62.87057983 76.24141235 62.87057983 76.99780273 63.82250977 C80.06130969 67.55865091 82.98997221 70.25021706 87.1875 72.75 C88.11949219 73.31332031 89.05148437 73.87664062 90.01171875 74.45703125 C91.24341797 75.18986328 91.24341797 75.18986328 92.5 75.9375 C93.985 76.9275 93.985 76.9275 95.5 77.9375 C98.91538144 78.52119443 98.91538144 78.52119443 102.5 77.9375 C108.69170336 73.04173455 112.6712524 66.32986226 114.125 58.625 C115.57316506 44.17067325 114.79775845 31.38413767 106.5 18.9375 C105.84 18.6075 105.18 18.2775 104.5 17.9375 C104.5 16.2875 104.5 14.6375 104.5 12.9375 C117.61339412 19.07168914 127.6780484 27.90764385 135.5 39.9375 C135.96019531 40.63488281 136.42039062 41.33226562 136.89453125 42.05078125 C141.11662072 49.73408895 140.64342023 60.25330303 138.95703125 68.63671875 C136.71517093 75.13935229 132.68822287 79.37603333 126.94995117 82.89672852 C122.28630404 84.87790716 117.47160245 84.32707785 112.5 84.0625 C104.89867552 83.71441955 99.51475138 83.93007918 92.5 86.9375 C81.51918243 88.42182563 71.51413174 84.4551997 62.1875 79 C59.41009424 76.86850256 57.60439279 74.72072918 55.5 71.9375 C54.736875 71.18210937 53.97375 70.42671875 53.1875 69.6484375 C44.97515636 61.36447458 38.59830258 51.72676774 32.4375 41.875 C24.72016153 29.54917381 16.67667953 17.45917121 5.5 7.9375 C4.84 7.9375 4.18 7.9375 3.5 7.9375 C-0.45996334 13.71244653 -0.19979597 20.13039373 0.5 26.9375 C1.16 27.9275 1.82 28.9175 2.5 29.9375 C2.5 30.9275 2.5 31.9175 2.5 32.9375 C-6.63458149 31.31684845 -15.56968432 28.53326586 -21.4375 20.8984375 C-23.35536658 17.35884549 -23.82350783 13.92492207 -23.5 9.9375 C-21.79904399 5.77960753 -18.89474132 2.84727828 -15.5 -0.0625 C-10.78687504 -1.71846283 -4.62110171 -1.96396823 0 0 Z " fill="#E1EBF0" transform="translate(748.5,283.0625)"/>
<path d="M0 0 C3.38109523 2.99332374 5.56834507 5.70503521 7 10 C7.32909171 16.07851754 7.06466852 22.01123956 6 28 C7.98 28 9.96 28 12 28 C11.35226153 33.57055086 10.11538013 38.92844296 8.82421875 44.3828125 C7.68147822 49.39787283 6.71171083 54.44042811 5.74609375 59.4921875 C4.98874035 63.05293804 4.01551738 66.50537195 3 70 C1.53977417 69.99214478 1.53977417 69.99214478 0.05004883 69.98413086 C-3.574779 69.96597883 -7.19960283 69.95453077 -10.82446289 69.94506836 C-12.39087602 69.94005144 -13.9572845 69.93323638 -15.52368164 69.92456055 C-17.78012239 69.91237906 -20.03650102 69.90674519 -22.29296875 69.90234375 C-22.98899704 69.89718246 -23.68502533 69.89202118 -24.40214539 69.88670349 C-28.07334965 69.88628355 -31.42628253 70.16932186 -35 71 C-43.51058511 71.67053095 -51.24777023 71.19338703 -57.9375 65.5 C-62.40819095 60.08098067 -62.49188665 56.54073805 -62.37109375 49.6484375 C-61.59257665 41.9943852 -58.3631358 36.92561018 -52.6875 31.875 C-51.47174955 30.89970296 -50.2472563 29.93466849 -49 29 C-50.32 28.34 -51.64 27.68 -53 27 C-43.57377604 22.83529397 -35.2099537 20.94615062 -25 20 C-25 19.01 -25 18.02 -25 17 C-34.13902731 13.95365756 -41.66452721 16.97734304 -50 21 C-50.66 21.33 -51.32 21.66 -52 22 C-53.99960012 22.039992 -56.00047242 22.04346799 -58 22 C-57.3588567 18.7074017 -56.71129104 15.41609917 -56.0625 12.125 C-55.88009766 11.18785156 -55.69769531 10.25070312 -55.50976562 9.28515625 C-55.33251953 8.38925781 -55.15527344 7.49335938 -54.97265625 6.5703125 C-54.81031494 5.74289551 -54.64797363 4.91547852 -54.48071289 4.06298828 C-54 2 -54 2 -53 0 C-50.77734375 -0.81640625 -50.77734375 -0.81640625 -47.9375 -1.5625 C-47.01839844 -1.81128906 -46.09929688 -2.06007813 -45.15234375 -2.31640625 C-32.07705309 -5.15181624 -11.64551954 -7.68917221 0 0 Z " fill="#F6F8F8" transform="translate(572,477)"/>
<path d="M0 0 C-0.60299164 7.23589973 -2.1150587 13.99370876 -4 21 C-10.65861139 21.4737352 -14.59311737 21.35188114 -20 17 C-23.01490557 15.99503148 -25.04181692 15.89664697 -28.1875 15.9375 C-29.08855469 15.94652344 -29.98960937 15.95554687 -30.91796875 15.96484375 C-31.94857422 15.98224609 -31.94857422 15.98224609 -33 16 C-33 16.66 -33 17.32 -33 18 C-31.89140625 18.33773438 -30.7828125 18.67546875 -29.640625 19.0234375 C-28.17702702 19.47377534 -26.71348845 19.92430633 -25.25 20.375 C-24.15558594 20.70757812 -24.15558594 20.70757812 -23.0390625 21.046875 C-19.50765798 22.13840003 -16.30745877 23.34246894 -13 25 C-11.865625 25.0825 -10.73125 25.165 -9.5625 25.25 C-4.65947757 26.28221525 -3.74397554 27.88403668 -1 32 C1.33884929 37.39734452 0.37885558 43.62001706 -1.5 49 C-5.07273405 57.13234219 -11.24320215 62.35592658 -19.25 65.96875 C-34.68952604 71.75857226 -49.58904463 71.24546804 -65 66 C-66.35069132 65.36924238 -67.69429358 64.71927252 -69 64 C-69.2160149 58.63446869 -68.51823672 54.2225971 -67.0625 49.125 C-66.88009766 48.44953125 -66.69769531 47.7740625 -66.50976562 47.078125 C-65.1487409 42.1487409 -65.1487409 42.1487409 -64 41 C-60.9465931 40.55839156 -58.04902952 40.52131277 -55 41 C-52.125 43.375 -52.125 43.375 -50 46 C-46.31912647 48.45391569 -43.55644412 48.22802759 -39.3125 48.125 C-38.61060547 48.11597656 -37.90871094 48.10695313 -37.18554688 48.09765625 C-35.45688475 48.07413704 -33.72839855 48.03826713 -32 48 C-34.60091993 44.69637539 -37.14846176 44.35420503 -41.1875 43.625 C-47.68942293 42.2131125 -53.44818041 40.71504219 -57.37109375 35.00390625 C-59.06902234 31.80193019 -60 29.66316259 -60 26 C-61.98 26 -63.96 26 -66 26 C-65.58727199 17.0850749 -63.46808683 11.05102123 -56.9375 4.8125 C-42.09259453 -7.61522514 -16.71246115 -11.14164076 0 0 Z " fill="#F5F7F8" transform="translate(505,479)"/>
<path d="M0 0 C10.56 0 21.12 0 32 0 C32.66 8.58 33.32 17.16 34 26 C37.465 19.07 37.465 19.07 41 12 C41.66 12 42.32 12 43 12 C43.0825 11.319375 43.165 10.63875 43.25 9.9375 C44 7 44 7 48 0 C58.23 0 68.46 0 79 0 C77.03983704 5.88048888 74.59278238 10.56852067 71.5 15.875 C71.00113281 16.75414062 70.50226563 17.63328125 69.98828125 18.5390625 C69.50746094 19.36921875 69.02664063 20.199375 68.53125 21.0546875 C67.87479492 22.19139893 67.87479492 22.19139893 67.20507812 23.35107422 C66.80740234 23.89521973 66.40972656 24.43936523 66 25 C65.34 25 64.68 25 64 25 C63.505 27.475 63.505 27.475 63 30 C64.32 30 65.64 30 67 30 C66.41584008 34.43018177 64.63282349 37.8184463 62.40234375 41.61328125 C62.04862198 42.22769577 61.69490021 42.84211029 61.33045959 43.47514343 C60.20602361 45.424804 59.07195172 47.36865368 57.9375 49.3125 C57.17057957 50.63829933 56.40429646 51.96446754 55.63867188 53.29101562 C53.76646622 56.53166097 51.88560176 59.76713245 50 63 C49.34 63 48.68 63 48 63 C47.896875 63.7425 47.79375 64.485 47.6875 65.25 C46.9111683 68.35532681 46.28240955 69.75748755 44 72 C40.90551758 72.45410156 40.90551758 72.45410156 37.14453125 72.390625 C36.48289474 72.38496521 35.82125824 72.37930542 35.13957214 72.37347412 C33.02980668 72.35111247 30.92175048 72.30092371 28.8125 72.25 C27.38088394 72.2299344 25.9492412 72.21168372 24.51757812 72.1953125 C21.01116485 72.15125069 17.50574928 72.08222777 14 72 C12.7050766 68.11522981 12.42570615 64.22837744 12.02734375 60.17578125 C11.93997452 59.31438034 11.85260529 58.45297943 11.7625885 57.56547546 C11.48434206 54.81479681 11.21086474 52.06366766 10.9375 49.3125 C10.74966291 47.44723398 10.56151565 45.58199917 10.37304688 43.71679688 C9.91176509 39.14488554 9.45475985 34.57256447 9 30 C7.02 30 5.04 30 3 30 C2.49384729 26.12577792 1.99617279 22.25051183 1.5 18.375 C1.35691406 17.28058594 1.21382812 16.18617188 1.06640625 15.05859375 C0.93105469 13.99511719 0.79570313 12.93164062 0.65625 11.8359375 C0.53056641 10.86188965 0.40488281 9.8878418 0.27539062 8.88427734 C-0.00622121 5.9348428 0 2.96284818 0 0 Z " fill="#F7F8F8" transform="translate(594,475)"/>
<path d="M0 0 C10.23 0 20.46 0 31 0 C29.79459905 6.02700476 28.49071198 12.03715206 27 18 C33.27 18 39.54 18 46 18 C45.28392456 22.29645262 44.48331659 26.45432208 43.5 30.6875 C43.11328125 32.36392578 43.11328125 32.36392578 42.71875 34.07421875 C42 37 42 37 41 40 C34.4 40 27.8 40 21 40 C21 42.31 21 44.62 21 47 C20.67 47.99 20.34 48.98 20 50 C21.98 50 23.96 50 26 50 C25.85904936 51.6254308 25.71207913 53.25034051 25.5625 54.875 C25.48128906 55.77992188 25.40007813 56.68484375 25.31640625 57.6171875 C25 60 25 60 24 62 C23.92966231 63.87379605 23.9156978 65.75001102 23.9375 67.625 C23.94652344 68.62789062 23.95554687 69.63078125 23.96484375 70.6640625 C23.97644531 71.43492187 23.98804688 72.20578125 24 73 C26.93443402 72.73343428 26.93443402 72.73343428 30 72 C30.99 70.515 30.99 70.515 32 69 C34.1640625 68.70703125 34.1640625 68.70703125 36.625 68.8125 C37.44226563 68.83957031 38.25953125 68.86664062 39.1015625 68.89453125 C39.72804688 68.92933594 40.35453125 68.96414063 41 69 C39.33333333 88.66666667 39.33333333 88.66666667 36 92 C33.54917045 92.12579108 31.1280718 92.18864456 28.67578125 92.203125 C27.93676071 92.20882507 27.19774017 92.21452515 26.43632507 92.22039795 C24.86682574 92.22986503 23.29730638 92.23638868 21.7277832 92.24023438 C19.33964552 92.24989024 16.95238674 92.28087501 14.56445312 92.3125 C13.03906761 92.31903498 11.51367593 92.3242835 9.98828125 92.328125 C9.27867752 92.3404718 8.56907379 92.3528186 7.83796692 92.36553955 C3.14525558 92.34473781 -0.01195813 91.46018199 -4 89 C-8.65845282 84.08973892 -9.23195663 80.04373348 -9.15576172 73.51904297 C-8.88353777 69.11652457 -7.98491579 64.86817093 -7.0625 60.5625 C-6.88009766 59.66595703 -6.69769531 58.76941406 -6.50976562 57.84570312 C-5.15558639 51.31117278 -5.15558639 51.31117278 -4 49 C-5.98 49 -7.96 49 -10 49 C-10.125 42.25 -10.125 42.25 -9 40 C-11.31 40 -13.62 40 -16 40 C-13.89473684 21.89473684 -13.89473684 21.89473684 -11 19 C-8.32941149 18.85884839 -5.67567762 18.95752893 -3 19 C-3.061875 18.0925 -3.12375 17.185 -3.1875 16.25 C-3 12 -3 12 0 0 Z " fill="#F7F8F8" transform="translate(733,457)"/>
<path d="M0 0 C9.9 0 19.8 0 30 0 C30 0.99 30 1.98 30 3 C30.98097656 2.50886719 31.96195313 2.01773437 32.97265625 1.51171875 C37.19017534 -0.29578943 40.90812797 -0.34911529 45.4375 -0.1875 C46.16904297 -0.17396484 46.90058594 -0.16042969 47.65429688 -0.14648438 C49.43652422 -0.11153874 51.21836573 -0.05774805 53 0 C51.77696248 8.79148147 50.11620945 17.37997349 48 26 C46.5629191 26.05422947 45.12524538 26.09289723 43.6875 26.125 C42.48673828 26.15980469 42.48673828 26.15980469 41.26171875 26.1953125 C39 26 39 26 36 24 C30.9169001 23.43473352 30.9169001 23.43473352 26.625 25.875 C24.97300815 27.89725682 24.97300815 27.89725682 24 30 C25.65 30 27.3 30 29 30 C28.67348355 36.79154218 27.3085883 43.17496843 25.58959961 49.72875977 C23.99815149 55.8371227 22.7712203 61.97988678 21.61328125 68.18359375 C21 71 21 71 20 72 C17.78144736 72.08783542 15.56011504 72.10694609 13.33984375 72.09765625 C12.34314415 72.09553383 12.34314415 72.09553383 11.3263092 72.09336853 C9.19666101 72.08775518 7.06711661 72.07520054 4.9375 72.0625 C3.49674631 72.05748671 2.05599097 72.05292351 0.61523438 72.04882812 C-2.92321102 72.03778145 -6.46159539 72.02050792 -10 72 C-7.6735588 57.84864489 -4.64147253 43.86858687 -1 30 C-2.65 30 -4.3 30 -6 30 C-5.3508774 24.41754563 -4.12563609 19.03734011 -2.81640625 13.57421875 C-1.78737775 9.06914184 -0.90627338 4.53136692 0 0 Z " fill="#F7F8F9" transform="translate(788,475)"/>
<path d="M0 0 C10.23 0 20.46 0 31 0 C29.35 8.25 27.7 16.5 26 25 C27.98 25 29.96 25 32 25 C31.6082022 29.77993313 31.02874696 34.20560828 29.6875 38.8125 C27.20141462 47.40303265 25.70692627 56.22993054 24 65 C13.77 65 3.54 65 -7 65 C-5.435653 54.04957098 -3.46302289 43.24923215 -0.6484375 32.55078125 C-0.01167051 30.04590867 0.51522142 27.53822745 1 25 C-0.98 25 -2.96 25 -5 25 C-4.38283489 16.35968842 -2.17950678 8.36649378 0 0 Z " fill="#F7F8F9" transform="translate(678,482)"/>
<path d="M0 0 C10.23 0 20.46 0 31 0 C30.38681207 6.13187927 29.86438614 11.29337838 28.4375 17.125 C28.16808594 18.24132812 27.89867187 19.35765625 27.62109375 20.5078125 C27.41613281 21.33023437 27.21117187 22.15265625 27 23 C28.98 23.33 30.96 23.66 33 24 C32.1342565 29.83612973 31.20333936 35.57615022 29.5625 41.25 C27.99853564 46.67227239 26.97324276 52.14150734 26.00219727 57.69433594 C25.09656691 62.80686618 25.09656691 62.80686618 24 65 C13.77 65 3.54 65 -7 65 C-4.75970425 51.55822551 -4.75970425 51.55822551 -3.0625 45.0625 C-2.71384259 43.70989309 -2.36620298 42.35702345 -2.01953125 41.00390625 C-1.8488916 40.3402002 -1.67825195 39.67649414 -1.50244141 38.99267578 C-0.24761918 34.01606792 0.86854988 29.00580961 2 24 C0.02 24 -1.96 24 -4 24 C-4.41248021 18.91274413 -3.20437977 14.69279662 -1.75390625 9.87890625 C-0.90665261 6.64353872 -0.47297868 3.31085079 0 0 Z " fill="#F7F8F9" transform="translate(844,482)"/>
<path d="M0 0 C0 0.66 0 1.32 0 2 C-0.969375 2.804375 -1.93875 3.60875 -2.9375 4.4375 C-11.17534685 11.28022763 -21.58622206 22.75866617 -25 33 C-25.66 33 -26.32 33 -27 33 C-27.23074219 33.67417969 -27.46148438 34.34835937 -27.69921875 35.04296875 C-35.02545389 51.69750328 -50.20857831 71.19791793 -66.8125 78.875 C-74.88571239 81.72436908 -84.00727242 82.45631463 -92 79 C-89.54829849 76.22743823 -86.8977476 74.75267239 -83.625 73.0625 C-74.98789067 68.6011832 -69.93392323 62.54428069 -64 55 C-62.948125 53.70642578 -62.948125 53.70642578 -61.875 52.38671875 C-56.79552548 45.93466564 -52.71091709 39.17283204 -48.625 32.0625 C-41.41827959 19.58812001 -32.30957184 5.26446222 -19.0625 -1.5 C-12.4139989 -2.58546957 -6.29624462 -2.65105036 0 0 Z " fill="#0969A0" transform="translate(565,286)"/>
<path d="M0 0 C-2.81064107 1.87376071 -5.49883458 3.16048362 -8.5625 4.5625 C-23.37665961 12.01404007 -34.03498151 26.19520952 -41 41 C-41.66 41 -42.32 41 -43 41 C-43.27457031 41.72703125 -43.54914062 42.4540625 -43.83203125 43.203125 C-49.28958117 56.27204054 -61.50237061 73.84506387 -74.96484375 79.484375 C-80.52026934 80.89189166 -85.3456381 80.68456355 -90.625 78.5 C-91.40875 78.005 -92.1925 77.51 -93 77 C-92.505 76.01 -92.505 76.01 -92 75 C-91.34 75 -90.68 75 -90 75 C-89.73960937 74.40574219 -89.47921875 73.81148437 -89.2109375 73.19921875 C-87.91628904 70.84797009 -86.62352532 69.58756152 -84.625 67.8125 C-75.84487033 59.22186953 -69.45040451 48.22057724 -62.72363281 38.01879883 C-39.19685387 2.37167682 -39.19685387 2.37167682 -19.83984375 -2.4609375 C-12.43197363 -3.86710817 -6.69510284 -3.49309714 0 0 Z " fill="#0969A0" transform="translate(848,636)"/>
<path d="M0 0 C2.48321659 0.00535543 4.96625178 0.00002395 7.44946289 -0.00634766 C22.37339092 -0.01600692 36.76453336 1.05088086 51.42797852 3.88037109 C52.132854 4.0145343 52.83772949 4.14869751 53.56396484 4.28692627 C63.05528067 6.10277079 72.30636878 8.10982595 81.4230957 11.38818359 C84.04705073 12.30253748 86.69240799 13.13712626 89.34204102 13.97412109 C100.64254278 17.57560181 111.11030461 21.51743387 121.55297852 27.13037109 C123.02427221 27.79394443 124.5028965 28.44166469 125.99047852 29.06787109 C138.79588035 34.69090733 150.20575572 42.01882155 161.55297852 50.13037109 C161.22297852 51.12037109 160.89297852 52.11037109 160.55297852 53.13037109 C157.70950403 51.76441951 155.07218399 50.23948572 152.42797852 48.52099609 C130.03312876 34.08578938 110.24255348 26.67053305 83.36547852 26.81787109 C82.27623077 26.82160233 82.27623077 26.82160233 81.16497803 26.82540894 C54.36039471 26.96727697 29.05316518 33.52078903 7.48266602 50.19677734 C4.76486592 51.51166444 3.3879692 51.06669829 0.55297852 50.13037109 C-1.74389648 48.78271484 -1.74389648 48.78271484 -4.19702148 47.06787109 C-17.193373 38.53242942 -31.88588957 32.61874102 -46.94702148 28.94287109 C-47.96119141 28.6919873 -47.96119141 28.6919873 -48.99584961 28.43603516 C-80.39809731 21.1628307 -112.18670844 27.58236099 -139.49731445 43.89794922 C-142.79806399 45.98437342 -145.81104385 48.35256391 -148.72045898 50.95068359 C-150.44702148 52.13037109 -150.44702148 52.13037109 -154.44702148 52.13037109 C-152.93558403 47.84959018 -149.78565471 45.93551801 -146.13452148 43.56787109 C-145.47427979 43.13659912 -144.81403809 42.70532715 -144.13378906 42.26098633 C-112.43768853 22.01059869 -76.56565943 9.65260879 -39.75952148 2.81787109 C-38.91252686 2.65859131 -38.06553223 2.49931152 -37.19287109 2.33520508 C-24.85309159 0.15462872 -12.49182533 -0.03197042 0 0 Z M-38.32202148 5.38037109 C-38.98611023 5.48279114 -39.65019897 5.58521118 -40.33441162 5.69073486 C-53.10095326 7.71546385 -65.85420124 10.55575629 -77.93530273 15.19677734 C-80.4374449 16.12681152 -82.94418811 16.8945778 -85.50952148 17.63037109 C-90.63407888 19.11920719 -95.52896407 21.06897256 -100.44702148 23.13037109 C-100.44702148 23.46037109 -100.44702148 23.79037109 -100.44702148 24.13037109 C-99.27268555 23.97052734 -98.09834961 23.81068359 -96.88842773 23.64599609 C-90.07016179 22.89477476 -83.23714706 22.8882357 -76.38452148 22.88037109 C-75.69515503 22.87903168 -75.00578857 22.87769226 -74.29553223 22.87631226 C-64.00014312 22.88065213 -54.41365011 23.447048 -44.44702148 26.13037109 C-43.49053711 26.35853516 -42.53405273 26.58669922 -41.54858398 26.82177734 C-38.81461945 27.50722691 -36.137503 28.29078821 -33.44702148 29.13037109 C-32.38354492 29.45521484 -31.32006836 29.78005859 -30.22436523 30.11474609 C-19.54212216 33.6313357 -9.26475397 38.70227026 -0.29077148 45.53271484 C2.39013559 47.44740674 2.39013559 47.44740674 5.04516602 46.61865234 C7.95352145 44.89266571 10.8322941 43.14624081 13.67797852 41.31787109 C24.08155409 34.79984443 34.88957512 30.75926844 46.55297852 27.13037109 C47.61000977 26.79392578 48.66704102 26.45748047 49.75610352 26.11083984 C59.86659392 23.50000333 69.67049056 22.83429294 80.06298828 22.92456055 C82.24792095 22.94293368 84.43242926 22.94506854 86.61743164 22.94482422 C93.65551681 22.96309407 100.57077648 23.15082535 107.55297852 24.13037109 C92.32823355 13.98054112 70.23467504 10.16614138 52.55297852 7.13037109 C51.67802734 6.97487793 50.80307617 6.81938477 49.90161133 6.65917969 C38.91187945 4.7073597 28.08234776 2.99708306 16.90454102 2.85693359 C15.98644653 2.84449615 15.06835205 2.83205872 14.12243652 2.81924438 C-3.49363055 2.62733089 -20.88164024 2.66314602 -38.32202148 5.38037109 Z " fill="#E5EDF2" transform="translate(656.447021484375,227.86962890625)"/>
<path d="M0 0 C0.66 0.33 1.32 0.66 2 1 C0.67840172 4.96479483 -1.77305797 6.24072236 -5.125 8.4375 C-5.77879639 8.86853027 -6.43259277 9.29956055 -7.10620117 9.74365234 C-26.24994099 22.04141719 -47.44859863 31.76967234 -69 39 C-70.12148438 39.39251953 -70.12148438 39.39251953 -71.265625 39.79296875 C-73.50009318 40.56479841 -75.74646106 41.28563161 -78 42 C-79.74216797 42.57041016 -79.74216797 42.57041016 -81.51953125 43.15234375 C-89.75362572 45.76738171 -97.98729013 47.70625725 -106.5 49.1875 C-107.38768066 49.34210693 -108.27536133 49.49671387 -109.18994141 49.65600586 C-112.12220062 50.14120173 -115.05792076 50.57832221 -118 51 C-119.22017822 51.17950195 -120.44035645 51.35900391 -121.69750977 51.54394531 C-133.76400325 53.20677472 -145.77123902 53.3958093 -157.9375 53.375 C-158.97092529 53.37545319 -160.00435059 53.37590637 -161.0690918 53.37637329 C-176.20107746 53.35690952 -190.73572639 52.65016005 -205.58740234 49.50830078 C-207.76808459 49.04886135 -209.94741119 48.64848255 -212.14453125 48.27734375 C-245.09694264 42.41679774 -289.00523203 27.64543602 -314 4 C-314 3.01 -314 2.02 -314 1 C-309.76283037 1.58588024 -306.71644097 4.10575535 -303.3125 6.5 C-291.4396521 14.60005759 -279.11759284 21.73654623 -265 25 C-264.08347656 25.22300781 -263.16695312 25.44601562 -262.22265625 25.67578125 C-230.15355576 32.0035098 -196.17813238 24.76005406 -168 9 C-165.6278017 7.38370042 -163.31432998 5.74842208 -161.0625 3.96875 C-157.98573609 2.52360332 -156.23440445 3.06046348 -153 4 C-150.70858959 5.33221536 -148.59774604 6.67397723 -146.4375 8.1875 C-136.40576004 14.90601699 -125.6507435 19.78874724 -114 23 C-113.00661621 23.27505371 -113.00661621 23.27505371 -111.99316406 23.55566406 C-79.72370049 32.12701371 -46.09391604 27.81054661 -17.31738281 11.37451172 C-11.36946874 7.84661916 -5.65653584 3.97394895 0 0 Z M-162.1875 9.0625 C-168.14661946 13.31288059 -174.49180937 16.32440813 -181.17871094 19.2109375 C-182.79727762 19.91217175 -184.40355325 20.64162434 -186.0078125 21.375 C-209.68830281 31.47867587 -235.78212593 31.71770766 -261 29 C-240.79191758 42.47205495 -210.70094034 46.27489188 -187 49 C-185.9471582 49.14139404 -185.9471582 49.14139404 -184.87304688 49.28564453 C-175.75545756 50.39459415 -166.54541419 50.24300055 -157.375 50.25 C-156.00439926 50.25151062 -156.00439926 50.25151062 -154.60610962 50.25305176 C-140.19992343 50.24232313 -126.20802904 49.53802713 -112 47 C-111.1642041 46.86078125 -110.3284082 46.7215625 -109.46728516 46.578125 C-92.69342436 43.7590984 -75.86480975 39.40002799 -60.14160156 32.87402344 C-57.46880719 31.78321133 -54.7520679 30.86907407 -52 30 C-52 29.67 -52 29.34 -52 29 C-52.70165283 29.06928711 -53.40330566 29.13857422 -54.1262207 29.20996094 C-90.16047472 32.52034112 -121.92073536 27.75322937 -152.6875 8.0625 C-157.4274249 5.11122601 -158.02895606 5.89309047 -162.1875 9.0625 Z " fill="#E6EEF2" transform="translate(817,719)"/>
<path d="M0 0 C22.55809118 4.97521811 35.14907559 27.31607111 46.75 45.375 C47.26852539 46.19468262 47.78705078 47.01436523 48.32128906 47.85888672 C53.20815703 55.53049373 58.61482558 62.65241527 64.75 69.375 C65.48734375 70.18710937 66.2246875 70.99921875 66.984375 71.8359375 C68.2068168 73.14840409 69.46038746 74.433905 70.765625 75.6640625 C72 77 72 77 72 79 C65.89501298 81.44199481 60.80782071 81.98502801 54.6484375 79.82421875 C50.66930719 78.02594263 47.70418207 75.49223731 44.5625 72.5 C43.99756836 71.96737549 43.43263672 71.43475098 42.85058594 70.88598633 C34.62038393 62.93726948 28.99784423 53.47509185 23.21875 43.70703125 C14.29758125 28.70289543 3.82796387 12.55418033 -12.3125 4.75 C-13.38113281 4.22921875 -14.44976562 3.7084375 -15.55078125 3.171875 C-16.35902344 2.78515625 -17.16726563 2.3984375 -18 2 C-12.7264613 -1.51569247 -6.13233398 -0.48766075 0 0 Z " fill="#0A6AA0" transform="translate(491,634)"/>
<path d="M0 0 C13.94216596 7.81906622 22.40700038 21.19806561 30.40966797 34.5324707 C34.59982038 41.51382688 38.92281258 48.28756673 43.78515625 54.82421875 C44.2644458 55.47559814 44.74373535 56.12697754 45.23754883 56.7980957 C48.29993804 60.8312925 51.51088535 63.8626188 55.47265625 67.01171875 C56.1275 67.6975 56.78234375 68.38328125 57.45703125 69.08984375 C59.98167884 71.49706587 62.68960139 73.0473834 65.72265625 74.76171875 C66.8003125 75.3753125 67.87796875 75.98890625 68.98828125 76.62109375 C69.808125 77.08 70.62796875 77.53890625 71.47265625 78.01171875 C66.06656147 81.61578194 58.9541236 80.5977083 52.7109375 79.546875 C39.72840875 76.10253064 31.05536386 66.50038675 23.22265625 56.13671875 C22.66690918 55.40638428 22.11116211 54.6760498 21.53857422 53.92358398 C16.1887426 46.79936362 11.39937462 39.35334624 6.63476562 31.83154297 C-0.27816184 21.00613093 -8.16532599 10.83188339 -17.52734375 2.01171875 C-13.04392962 -2.47169538 -5.63200497 -2.20231415 0 0 Z " fill="#0969A0" transform="translate(773.52734375,285.98828125)"/>
<path d="M0 0 C4.09343628 1.77639688 5.954119 1.22343756 10.3125 0.4375 C15.87191172 0.01792176 20.66062215 -0.29994547 25.8125 2 C28.78836224 4.90146569 31.0882807 7.4139512 32.3125 11.4375 C32.3370833 14.5251628 31.94217916 17.41914662 31.3125 20.4375 C30.6525 20.4375 29.9925 20.4375 29.3125 20.4375 C29.17134766 21.33275391 29.17134766 21.33275391 29.02734375 22.24609375 C27.68064323 26.37450355 23.9313658 28.32993868 20.3125 30.4375 C15.5823221 32.33946989 11.42230187 33.4375 6.3125 33.4375 C6.79828543 30.31459365 7.3111012 27.44169641 8.3125 24.4375 C8.71573698 18.46396613 8.72502478 13.01646356 6.3125 7.4375 C-5.11864787 16.79316013 -13.49699037 27.63613283 -21.52944946 39.88705444 C-48.4287858 80.82359401 -48.4287858 80.82359401 -63.6875 84.4375 C-63.49609375 82.625 -63.49609375 82.625 -62.6875 80.4375 C-60.53515625 78.9375 -60.53515625 78.9375 -57.75 77.4375 C-50.89267361 73.26463084 -46.42481274 67.8182188 -41.6875 61.4375 C-41.26049805 60.86515625 -40.83349609 60.2928125 -40.39355469 59.703125 C-35.27318455 52.78928691 -30.488397 45.73515028 -26.0625 38.3515625 C-25.60875 37.71992188 -25.155 37.08828125 -24.6875 36.4375 C-24.0275 36.4375 -23.3675 36.4375 -22.6875 36.4375 C-22.62304688 35.74785156 -22.55859375 35.05820312 -22.4921875 34.34765625 C-21.43175879 30.51261068 -19.28689996 27.90025002 -16.8125 24.875 C-16.32724854 24.27091309 -15.84199707 23.66682617 -15.34204102 23.04443359 C-11.88198534 18.78461919 -8.30437421 14.63401966 -4.625 10.5625 C-4.1604541 10.04486084 -3.6959082 9.52722168 -3.21728516 8.99389648 C-2.0839921 7.76696893 -0.89060822 6.59604865 0.3125 5.4375 C0.9725 5.4375 1.6325 5.4375 2.3125 5.4375 C2.3125 4.7775 2.3125 4.1175 2.3125 3.4375 C-3.65424616 2.11155641 -9.61333615 2.3490413 -15.6875 2.4375 C-16.1825 0.9525 -16.1825 0.9525 -16.6875 -0.5625 C-11.26392708 -2.37035764 -5.19699263 -2.58081947 0 0 Z " fill="#DCE8EF" transform="translate(562.6875,282.5625)"/>
<path d="M0 0 C1.74216797 0.02707031 1.74216797 0.02707031 3.51953125 0.0546875 C4.39996094 0.07789063 5.28039062 0.10109375 6.1875 0.125 C6.1875 3.68487335 5.48388083 4.30710097 3.375 7.0625 C-3.84399933 17.72887018 -4.79080898 32.67318212 -2.42285156 45.18359375 C-1.48571646 48.93213416 -0.17998549 52.51681541 1.1875 56.125 C1.54313554 57.45255876 1.88633741 58.78403394 2.1875 60.125 C-2.26473173 58.68721507 -5.36709734 56.25711796 -8.75 53.125 C-9.27706543 52.63805664 -9.80413086 52.15111328 -10.34716797 51.64941406 C-18.55395399 43.80562538 -22.7314176 35.19471873 -23.25 23.8125 C-23.12506978 16.57487592 -21.20366487 10.88901546 -16.3203125 5.46875 C-11.24175587 0.94278243 -6.66120996 -0.1345699 0 0 Z " fill="#0C6BA1" transform="translate(456.8125,635.875)"/>
<path d="M0 0 C15.11373567 -0.82941232 15.11373567 -0.82941232 21 4 C27.60011957 11.19355137 28.45991764 17.45462115 28.265625 26.921875 C27.78161549 37.27588237 22.11085018 44.79517383 15 52 C11.19279995 55.26465353 7.13557742 58.16597486 3 61 C2.34 60.67 1.68 60.34 1 60 C1.40992188 59.2265625 1.81984375 58.453125 2.2421875 57.65625 C2.78101563 56.6146875 3.31984375 55.573125 3.875 54.5 C4.40867187 53.4790625 4.94234375 52.458125 5.4921875 51.40625 C8.36468061 44.91709459 9.36968254 38.81612837 9.3125 31.75 C9.30404053 30.64084229 9.30404053 30.64084229 9.29541016 29.50927734 C9.04989092 18.30047343 5.80546802 9.54426457 0 0 Z " fill="#09699F" transform="translate(857,638)"/>
<path d="M0 0 C11.13077487 6.25980286 19.9733082 15.77611417 24 28 C24.98458213 37.06851958 24.8138268 45.54494937 19 53 C13.2195047 58.48809671 8.80413914 60.13581779 0.8125 60.0625 C-0.45980469 60.05347656 -1.73210938 60.04445313 -3.04296875 60.03515625 C-4.50669922 60.01775391 -4.50669922 60.01775391 -6 60 C-6 56.47821993 -5.59237211 56.27535162 -3.25 53.875 C4.03548742 45.76279061 5.19435572 36.85003583 5.25 26.375 C5.270625 25.42753906 5.29125 24.48007812 5.3125 23.50390625 C5.35893867 15.01723969 3.36322469 7.76128775 0 0 Z " fill="#0B6AA0" transform="translate(861,305)"/>
<path d="M0 0 C0.33 0.66 0.66 1.32 1 2 C0.2310036 4.14112722 -0.5921785 6.26284167 -1.4375 8.375 C-6.26227613 21.70683454 -5.77718818 37.03080205 0 50 C1.19967769 52.22673988 2.42345276 54.00304017 4 56 C4.66 56.99 5.32 57.98 6 59 C-10.40681069 59.76016111 -10.40681069 59.76016111 -16 55 C-22.72664907 47.48831866 -23.64854986 41.04601431 -23.38671875 31.171875 C-22.67517483 20.17664889 -15.50807277 12.70594878 -7.90234375 5.49609375 C-5.35882728 3.30860112 -2.93674376 1.60039064 0 0 Z " fill="#0A6AA0" transform="translate(458,304)"/>
<path d="M0 0 C10.56 0 21.12 0 32 0 C31.29723062 5.62215504 30.74273527 8.97682186 29 14 C28.34 16.97 27.68 19.94 27 23 C16.44 23 5.88 23 -5 23 C-3 11 -3 11 0 0 Z " fill="#F4F6F8" transform="translate(685,450)"/>
<path d="M0 0 C10.56 0 21.12 0 32 0 C30.94782609 10.52173913 30.94782609 10.52173913 29 16 C28.67 18.31 28.34 20.62 28 23 C17.44 23 6.88 23 -4 23 C-3 13 -3 13 0 0 Z " fill="#F5F7F8" transform="translate(851,450)"/>
<path d="M0 0 C2.48321659 0.00535543 4.96625178 0.00002395 7.44946289 -0.00634766 C22.37339092 -0.01600692 36.76453336 1.05088086 51.42797852 3.88037109 C52.132854 4.0145343 52.83772949 4.14869751 53.56396484 4.28692627 C63.0364726 6.0991725 72.26866139 8.09958386 81.3659668 11.375 C84.15839523 12.33947573 86.97687106 13.20616109 89.79907227 14.07958984 C92.02970341 14.78350251 94.26017207 15.4879303 96.49047852 16.19287109 C97.56555664 16.5214209 98.64063477 16.8499707 99.74829102 17.18847656 C100.74473633 17.51090332 101.74118164 17.83333008 102.76782227 18.16552734 C103.66621826 18.4479126 104.56461426 18.73029785 105.49023438 19.02124023 C107.55297852 20.13037109 107.55297852 20.13037109 108.35205078 22.25317383 C108.41835693 22.87264893 108.48466309 23.49212402 108.55297852 24.13037109 C107.72797852 23.84838867 106.90297852 23.56640625 106.05297852 23.27587891 C84.55656242 15.82703124 84.55656242 15.82703124 62.55297852 10.13037109 C61.78373047 9.9634375 61.01448242 9.79650391 60.22192383 9.62451172 C57.66796183 9.07289575 55.11139576 8.53592293 52.55297852 8.00537109 C51.7942041 7.84633301 51.03542969 7.68729492 50.25366211 7.5234375 C35.06054085 4.49629661 20.12952635 3.69223145 4.67797852 3.69287109 C3.67829041 3.69113892 2.67860229 3.68940674 1.64862061 3.68762207 C-11.81953572 3.69780107 -25.00547765 4.31992226 -38.32202148 6.38037109 C-39.31924225 6.5338652 -39.31924225 6.5338652 -40.33660889 6.69046021 C-53.2258446 8.73510575 -66.16573253 11.56048575 -78.31030273 16.39599609 C-80.44702148 17.13037109 -80.44702148 17.13037109 -83.44702148 17.13037109 C-83.77702148 16.14037109 -84.10702148 15.15037109 -84.44702148 14.13037109 C-79.7878331 12.76985768 -75.11974231 11.44342765 -70.44702148 10.13037109 C-69.72981934 9.92718262 -69.01261719 9.72399414 -68.27368164 9.51464844 C-58.94608186 6.89106809 -49.60169987 4.64585559 -40.07202148 2.88037109 C-38.77264648 2.63577148 -38.77264648 2.63577148 -37.44702148 2.38623047 C-25.01642834 0.17989407 -12.58552385 -0.03221022 0 0 Z " fill="#DEE9EF" transform="translate(656.447021484375,227.86962890625)"/>
<path d="M0 0 C-0.03480469 1.08539062 -0.06960938 2.17078125 -0.10546875 3.2890625 C-0.13362388 4.73435942 -0.16092219 6.17967321 -0.1875 7.625 C-0.21263672 8.33785156 -0.23777344 9.05070313 -0.26367188 9.78515625 C-0.3312898 14.69872573 0.64416494 17.59813832 3 22 C2 25 2 25 0 26 C-5.93852293 26.50168268 -10.65518718 26.15023681 -15.75 22.875 C-17.79530221 19.80704668 -18.21921832 16.60340106 -18 13 C-15.15577654 7.19778415 -10.74270413 3.10763052 -4.75 0.6875 C-2 0 -2 0 0 0 Z " fill="#0B6AA0" transform="translate(746,688)"/>
<path d="M0 0 C7.11965173 1.73047091 11.95967411 4.6639407 17 10 C18.53214888 13.06429776 18.22938548 15.6165642 18 19 C16.30162373 22.82134661 14.85712758 24.48277324 11 26 C8.34375 26.265625 8.34375 26.265625 5.5 26.25 C4.5615625 26.25515625 3.623125 26.2603125 2.65625 26.265625 C-0.04047676 25.99595232 -1.68949293 25.3732259 -4 24 C-3.6390625 23.29875 -3.278125 22.5975 -2.90625 21.875 C0.94361429 14.00416633 2.16238807 8.64955228 0 0 Z " fill="#0969A0" transform="translate(573,688)"/>
<path d="M0 0 C0.7425 0.556875 1.485 1.11375 2.25 1.6875 C3.1471875 2.2753125 3.1471875 2.2753125 4.0625 2.875 C6.07642073 5.94887901 5.8459174 9.19807253 5.25 12.6875 C2.02187787 18.9046241 -2.00457999 22.22754263 -8.5625 24.4375 C-9.95517138 24.86461618 -11.35004504 25.28489857 -12.75 25.6875 C-12.59015625 24.99527344 -12.4303125 24.30304688 -12.265625 23.58984375 C-10.93264965 16.08680826 -10.48773728 8.25848836 -14.75 1.6875 C-14.75 1.0275 -14.75 0.3675 -14.75 -0.3125 C-9.65337501 -1.54804545 -4.84950282 -2.31453544 0 0 Z " fill="#0D6BA1" transform="translate(585.75,287.3125)"/>
<path d="M0 0 C-0.29648437 0.57621094 -0.59296875 1.15242188 -0.8984375 1.74609375 C-4.54384104 9.20495136 -5.41761925 15.72495183 -5 24 C-11.31718671 23.84207033 -14.80727176 20.32493138 -19 16 C-21.68879568 11.96680649 -21.89545779 8.73431848 -21 4 C-16.03134538 -2.76289101 -7.55890211 -2.51963404 0 0 Z " fill="#0B6AA0" transform="translate(750,287)"/>
<path d="M0 0 C10.9902913 1.67243563 19.42751333 12.70043654 26 21 C29.30259174 25.88783577 32.24635702 30.98333761 35.20947266 36.08056641 C44.71485387 52.35113684 54.51975337 68.51752205 72 77 C71.505 78.485 71.505 78.485 71 80 C69.01464194 78.90700499 67.03686057 77.80023764 65.0625 76.6875 C63.40927734 75.76517578 63.40927734 75.76517578 61.72265625 74.82421875 C59 73 59 73 58 70 C56.68132085 69.30479677 55.345905 68.64090714 54 68 C44.44908069 59.16183586 37.4601056 46.93156569 30.9375 35.8125 C26.50136847 28.27051182 21.93637991 21.46661966 16 15 C15.40832031 14.32839844 14.81664062 13.65679687 14.20703125 12.96484375 C10.05429165 8.4890077 5.45809966 5.68573158 0 3 C0 2.01 0 1.02 0 0 Z " fill="#D8E5ED" transform="translate(771,283)"/>
<path d="M0 0 C0.66 0 1.32 0 2 0 C2 0.66 2 1.32 2 2 C2.99 2.0825 3.98 2.165 5 2.25 C12.04017417 3.27609826 17.34656157 6.68178465 22 12 C22.598125 12.598125 23.19625 13.19625 23.8125 13.8125 C25.65405161 17.2048319 25.19110749 20.17785018 25 24 C24.01 23.67 23.02 23.34 22 23 C21.7525 21.783125 21.505 20.56625 21.25 19.3125 C20.29663412 14.95202327 18.50752215 12.94883816 15.01953125 10.25390625 C11.81591272 8.26481235 8.59165708 7.1342075 5 6 C5.15984375 6.58136719 5.3196875 7.16273438 5.484375 7.76171875 C6.96864034 14.20477964 6.23223614 19.34358675 3 25 C0.8125 25.9375 0.8125 25.9375 -1 26 C0.875 20.25 0.875 20.25 2 18 C2.24631586 12.99157749 2.1656543 9.58609145 0 5 C-0.6875 2.75 -0.6875 2.75 -1 1 C-0.67 0.67 -0.34 0.34 0 0 Z " fill="#DEE9EF" transform="translate(569,683)"/>
<path d="M0 0 C0.60223389 0.48960205 1.20446777 0.9792041 1.82495117 1.48364258 C1.06053711 1.58386719 0.29612305 1.6840918 -0.49145508 1.78735352 C-26.26080409 5.16602792 -26.26080409 5.16602792 -51.03833008 12.74926758 C-53.17504883 13.48364258 -53.17504883 13.48364258 -56.17504883 13.48364258 C-56.50504883 12.49364258 -56.83504883 11.50364258 -57.17504883 10.48364258 C-6.27987655 -4.37807983 -6.27987655 -4.37807983 0 0 Z " fill="#DFE9EF" transform="translate(629.175048828125,231.516357421875)"/>
<path d="M0 0 C-0.41153737 4.97093824 -0.79600832 9.44508386 -3 14 C-6.375 14.125 -6.375 14.125 -10 14 C-12 12 -12 12 -12.5 9.1875 C-12 6 -12 6 -9.1875 3.1875 C-5.81545177 0.87334925 -4.06721461 0 0 0 Z " fill="#0969A0" transform="translate(551,515)"/>
<path d="M0 0 C0.66 0.33 1.32 0.66 2 1 C0.63788839 5.08633484 -2.10349438 6.43111875 -5.5625 8.6875 C-6.2212915 9.12304199 -6.88008301 9.55858398 -7.55883789 10.00732422 C-14.7232048 14.63738594 -22.29121225 18.37352692 -30 22 C-30 20.68 -30 19.36 -30 18 C-29.09121094 17.53851562 -28.18242188 17.07703125 -27.24609375 16.6015625 C-17.70868059 11.67869653 -8.82132819 6.10611086 0 0 Z " fill="#E1EBF0" transform="translate(817,719)"/>
<path d="M0 0 C13.35553159 -0.32355928 26.02514906 -0.4932291 39 3 C39 3.66 39 4.32 39 5 C25.97408103 4.28158937 12.99195035 3.17316902 0 2 C0 1.34 0 0.68 0 0 Z " fill="#F0F4F6" transform="translate(668,229)"/>
<path d="M0 0 C0.99 0 1.98 0 3 0 C3.054348 2.0622048 3.09294961 4.12482816 3.125 6.1875 C3.14820313 7.33605469 3.17140625 8.48460937 3.1953125 9.66796875 C3.00484152 12.91740372 2.39360127 15.08660521 1 18 C3.31 17.34 5.62 16.68 8 16 C7.67 16.99 7.34 17.98 7 19 C3.3962102 20.52160014 0.94779314 21 -3 21 C-2.51421457 17.87709365 -2.0013988 15.00419641 -1 12 C-0.77674186 9.94106379 -0.59294241 7.87766347 -0.4375 5.8125 C-0.35371094 4.72582031 -0.26992188 3.63914062 -0.18359375 2.51953125 C-0.12300781 1.68808594 -0.06242188 0.85664063 0 0 Z " fill="#EAF0F4" transform="translate(572,295)"/>
<path d="M0 0 C5.93877129 1.65733152 9.35838843 4.04781327 13.3125 8.75 C15.47120415 12.90750428 15.3188853 15.37616308 15 20 C14.01 19.67 13.02 19.34 12 19 C11.7525 17.783125 11.505 16.56625 11.25 15.3125 C10.15431052 10.13118874 7.16293742 7.97617575 3 5 C2.195625 4.38125 1.39125 3.7625 0.5625 3.125 C0.046875 2.75375 -0.46875 2.3825 -1 2 C-0.67 1.34 -0.34 0.68 0 0 Z " fill="#C9DCE7" transform="translate(579,687)"/>
<path d="M0 0 C-0.72058594 0.5671875 -1.44117188 1.134375 -2.18359375 1.71875 C-4.88566622 3.90739122 -7.48156429 6.17037643 -10.0625 8.5 C-10.89910156 9.2528125 -11.73570312 10.005625 -12.59765625 10.78125 C-14.14932871 12.21433936 -15.66151339 13.69196981 -17.12109375 15.21875 C-19 17 -19 17 -22 18 C-20.36240747 13.83066932 -17.3160413 11.0206453 -14.1875 7.9375 C-13.66607422 7.40833984 -13.14464844 6.87917969 -12.60742188 6.33398438 C-4.67537007 -1.55845669 -4.67537007 -1.55845669 0 0 Z " fill="#EAF0F4" transform="translate(547,284)"/>
<path d="M0 0 C-0.33 0.99 -0.66 1.98 -1 3 C-3.71318044 3.88082622 -6.28883517 4.57876229 -9.0625 5.1875 C-9.82111328 5.36474609 -10.57972656 5.54199219 -11.36132812 5.72460938 C-13.23821697 6.16136967 -15.1188016 6.58219156 -17 7 C-16.67 5.68 -16.34 4.36 -16 3 C-13.71068726 2.30364247 -11.4191243 1.61765623 -9.125 0.9375 C-8.47402344 0.73833984 -7.82304688 0.53917969 -7.15234375 0.33398438 C-2.2265625 -1.11328125 -2.2265625 -1.11328125 0 0 Z " fill="#DAE6EE" transform="translate(748,756)"/>
<path d="M0 0 C12.54 0 25.08 0 38 0 C38 0.33 38 0.66 38 1 C34.7 1 31.4 1 28 1 C28 1.66 28 2.32 28 3 C14.14 2.01 14.14 2.01 0 1 C0 0.67 0 0.34 0 0 Z " fill="#C1D8E4" transform="translate(640,228)"/>
<path d="M0 0 C0.54398438 0.38285156 1.08796875 0.76570313 1.6484375 1.16015625 C-1.61870292 3.33824987 -5.0265801 5.05181489 -8.5390625 6.78515625 C-9.19326172 7.11 -9.84746094 7.43484375 -10.52148438 7.76953125 C-12.13061062 8.56822165 -13.74096705 9.36443274 -15.3515625 10.16015625 C-14.39526325 6.86936178 -13.65613082 5.39172486 -10.890625 3.2890625 C-9.44816406 2.51369141 -9.44816406 2.51369141 -7.9765625 1.72265625 C-7.02007813 1.18769531 -6.06359375 0.65273438 -5.078125 0.1015625 C-2.3515625 -0.83984375 -2.3515625 -0.83984375 0 0 Z " fill="#DAE7EE" transform="translate(536.3515625,258.83984375)"/>
<path d="M0 0 C1.32 0.99 2.64 1.98 4 3 C-5.405 3.99 -5.405 3.99 -15 5 C-15.33 4.01 -15.66 3.02 -16 2 C-4.52861487 -0.53912082 -4.52861487 -0.53912082 0 0 Z " fill="#C9DCE7" transform="translate(627,230)"/>
<path d="M0 0 C8.415 1.485 8.415 1.485 17 3 C16.01 3.495 16.01 3.495 15 4 C15 4.66 15 5.32 15 6 C12.95825942 5.68798326 10.91661087 5.37536431 8.875 5.0625 C7.16957031 4.80146484 7.16957031 4.80146484 5.4296875 4.53515625 C2.28267331 4.04410734 -0.85930783 3.52981281 -4 3 C-2.68 2.67 -1.36 2.34 0 2 C0 1.34 0 0.68 0 0 Z " fill="#D2E2EB" transform="translate(707,232)"/>
<path d="M0 0 C3.69876091 1.37287342 6.9514476 3.06355453 10.3125 5.125 C11.19550781 5.66382813 12.07851563 6.20265625 12.98828125 6.7578125 C13.65214844 7.16773438 14.31601562 7.57765625 15 8 C14.67 8.99 14.34 9.98 14 11 C12.03434435 9.93001008 10.07767559 8.84349833 8.125 7.75 C7.03445313 7.14671875 5.94390625 6.5434375 4.8203125 5.921875 C2.07007102 4.04774923 1.07640946 3.07934858 0 0 Z " fill="#C6DBE6" transform="translate(828,352)"/>
<path d="M0 0 C-2.34591852 2.7710688 -4.14776201 3.52059284 -7.6875 4.1875 C-8.49574219 4.34605469 -9.30398438 4.50460938 -10.13671875 4.66796875 C-11.05904297 4.83232422 -11.05904297 4.83232422 -12 5 C-12.33 4.01 -12.66 3.02 -13 2 C-11.5882217 1.46605821 -10.17029756 0.94834896 -8.75 0.4375 C-7.96109375 0.14746094 -7.1721875 -0.14257812 -6.359375 -0.44140625 C-3.80896548 -1.04522837 -2.44677771 -0.8473932 0 0 Z " fill="#D6E4EC" transform="translate(585,240)"/>
<path d="M0 0 C0.90105469 0.00902344 1.80210937 0.01804687 2.73046875 0.02734375 C3.41753906 0.03894531 4.10460937 0.05054688 4.8125 0.0625 C3.8225 0.5575 3.8225 0.5575 2.8125 1.0625 C2.8125 1.7225 2.8125 2.3825 2.8125 3.0625 C-0.4875 3.3925 -3.7875 3.7225 -7.1875 4.0625 C-7.5175 3.0725 -7.8475 2.0825 -8.1875 1.0625 C-5.17259443 0.05753148 -3.14568308 -0.04085303 0 0 Z " fill="#CCDEE8" transform="translate(554.1875,280.9375)"/>
<path d="M0 0 C2.4375 1 2.4375 1 4 2 C1.35541621 3.32229189 -0.67761301 3.09677194 -3.625 3.0625 C-4.62789062 3.05347656 -5.63078125 3.04445312 -6.6640625 3.03515625 C-7.43492187 3.02355469 -8.20578125 3.01195312 -9 3 C-9 2.34 -9 1.68 -9 1 C-5.97562661 -0.5121867 -3.33758466 -0.17263369 0 0 Z " fill="#D6E4EC" transform="translate(692,229)"/>
<path d="M0 0 C-0.66 1.32 -1.32 2.64 -2 4 C-2 3.34 -2 2.68 -2 2 C-3.98 2.66 -5.96 3.32 -8 4 C-8.66 3.01 -9.32 2.02 -10 1 C-3.71428571 -1.42857143 -3.71428571 -1.42857143 0 0 Z " fill="#BDD5E3" transform="translate(748,686)"/>
<path d="M0 0 C0.25 6.625 0.25 6.625 -2 10 C-2.66 9.34 -3.32 8.68 -4 8 C-3.75 4.4375 -3.75 4.4375 -3 1 C-1 0 -1 0 0 0 Z " fill="#CDDFE9" transform="translate(865,679)"/>
<path d="M0 0 C1.45880109 0.14107747 2.91703551 0.28802415 4.375 0.4375 C5.59316406 0.55931641 5.59316406 0.55931641 6.8359375 0.68359375 C9 1 9 1 11 2 C11 2.66 11 3.32 11 4 C3.375 3.125 3.375 3.125 0 2 C0 1.34 0 0.68 0 0 Z " fill="#E9F0F3" transform="translate(722,236)"/>
<path d="M0 0 C0.66 0.33 1.32 0.66 2 1 C1.09515208 2.15518918 0.1755794 3.29885406 -0.75 4.4375 C-1.26046875 5.07558594 -1.7709375 5.71367187 -2.296875 6.37109375 C-4.19667629 8.18810554 -5.43586908 8.60423197 -8 9 C-6.4169423 4.7257442 -3.49431596 2.73468206 0 0 Z " fill="#E8EFF3" transform="translate(495,346)"/>
<path d="M0 0 C0 0.66 0 1.32 0 2 C-3.3 2.66 -6.6 3.32 -10 4 C-8 1 -8 1 -6.125 0.3125 C-4 0 -4 0 0 0 Z " fill="#E7EFF3" transform="translate(594,237)"/>
<path d="M0 0 C2.31 0.33 4.62 0.66 7 1 C6.67 1.99 6.34 2.98 6 4 C2.7 3.67 -0.6 3.34 -4 3 C-2.68 2.67 -1.36 2.34 0 2 C0 1.34 0 0.68 0 0 Z " fill="#BDD5E3" transform="translate(707,232)"/>
<path d="M0 0 C0.66 0.33 1.32 0.66 2 1 C1 4 1 4 -2.0625 5.6875 C-3.031875 6.120625 -4.00125 6.55375 -5 7 C-3.75023244 3.34683329 -3.32901247 2.21934164 0 0 Z " fill="#DAE7EE" transform="translate(817,719)"/>
<path d="M0 0 C5.75 0.875 5.75 0.875 8 2 C8 2.66 8 3.32 8 4 C5.69 3.67 3.38 3.34 1 3 C0.67 2.01 0.34 1.02 0 0 Z " fill="#E5EDF2" transform="translate(749,244)"/>
<path d="M0 0 C0.33 0.66 0.66 1.32 1 2 C-1.31 2.33 -3.62 2.66 -6 3 C-6 2.34 -6 1.68 -6 1 C-6.66 0.67 -7.32 0.34 -8 0 C-4.97878489 -0.97110486 -2.99536737 -1.13617383 0 0 Z " fill="#C9DCE7" transform="translate(600,236)"/>
<path d="M0 0 C0.33 0.66 0.66 1.32 1 2 C-0.98 2.33 -2.96 2.66 -5 3 C-5.33 2.01 -5.66 1.02 -6 0 C-3 -1 -3 -1 0 0 Z " fill="#C3D9E5" transform="translate(578,242)"/>
</svg>
